<svg xmlns="http://www.w3.org/2000/svg" xmlns:xlink="http://www.w3.org/1999/xlink" width="500" zoomAndPan="magnify" viewBox="0 0 375 374.999991" height="500" preserveAspectRatio="xMidYMid meet" version="1.0"><defs><clipPath id="c0b902b354"><path d="M 3.222656 3.222656 L 371.777344 3.222656 L 371.777344 371.777344 L 3.222656 371.777344 Z M 3.222656 3.222656 " clip-rule="nonzero"/></clipPath><clipPath id="56edef09a4"><path d="M 187.5 3.222656 C 85.726562 3.222656 3.222656 85.726562 3.222656 187.5 C 3.222656 289.273438 85.726562 371.777344 187.5 371.777344 C 289.273438 371.777344 371.777344 289.273438 371.777344 187.5 C 371.777344 85.726562 289.273438 3.222656 187.5 3.222656 Z M 187.5 3.222656 " clip-rule="nonzero"/></clipPath><clipPath id="b770a45988"><path d="M 38 51 L 312.75 51 L 312.75 326.570312 L 38 326.570312 Z M 38 51 " clip-rule="nonzero"/></clipPath></defs><g clip-path="url(#c0b902b354)"><g clip-path="url(#56edef09a4)"><path fill="#cfd8dc" d="M 3.222656 3.222656 L 371.777344 3.222656 L 371.777344 371.777344 L 3.222656 371.777344 Z M 3.222656 3.222656 " fill-opacity="1" fill-rule="nonzero"/></g></g><g clip-path="url(#b770a45988)"><path fill="#231f20" d="M 235.082031 326.660156 C 234.175781 326.660156 233.28125 326.570312 232.394531 326.394531 C 231.503906 326.21875 230.644531 325.957031 229.808594 325.609375 C 228.972656 325.265625 228.179688 324.839844 227.425781 324.335938 C 226.675781 323.835938 225.976562 323.261719 225.339844 322.625 C 224.699219 321.984375 224.128906 321.289062 223.625 320.535156 C 223.121094 319.785156 222.699219 318.988281 222.351562 318.152344 C 222.003906 317.316406 221.742188 316.457031 221.566406 315.570312 C 221.390625 314.679688 221.304688 313.785156 221.304688 312.878906 L 221.304688 277.058594 C 221.515625 274.996094 221.515625 272.9375 221.296875 270.875 C 221.078125 268.816406 220.648438 266.800781 220.007812 264.832031 C 219.367188 262.863281 218.53125 260.980469 217.492188 259.1875 C 216.457031 257.390625 215.246094 255.726562 213.863281 254.183594 C 213.003906 253.253906 212.289062 252.226562 211.714844 251.097656 C 211.140625 249.972656 210.730469 248.785156 210.480469 247.546875 C 210.234375 246.304688 210.15625 245.054688 210.253906 243.792969 C 210.351562 242.53125 210.617188 241.304688 211.050781 240.117188 C 211.484375 238.929688 212.070312 237.820312 212.808594 236.792969 C 213.550781 235.769531 214.414062 234.859375 215.402344 234.070312 C 216.390625 233.28125 217.46875 232.640625 218.636719 232.152344 C 219.800781 231.660156 221.011719 231.332031 222.265625 231.175781 C 255.886719 227.179688 286.886719 216.433594 286.886719 158.148438 C 286.894531 152.707031 286.109375 147.382812 284.535156 142.171875 C 282.964844 136.960938 280.671875 132.09375 277.65625 127.5625 C 276.277344 125.496094 275.113281 123.316406 274.164062 121.023438 C 273.214844 118.730469 272.5 116.367188 272.015625 113.929688 C 271.53125 111.496094 271.289062 109.039062 271.285156 106.554688 C 271.285156 104.074219 271.523438 101.613281 272.007812 99.179688 C 273.261719 92.703125 273.261719 86.226562 272.007812 79.75 C 261.628906 83.261719 252.027344 88.265625 243.210938 94.769531 C 242.382812 95.359375 241.5 95.847656 240.5625 96.242188 C 239.625 96.636719 238.65625 96.921875 237.65625 97.101562 C 236.65625 97.277344 235.648438 97.34375 234.632812 97.300781 C 233.617188 97.257812 232.617188 97.101562 231.636719 96.835938 C 225.449219 95.089844 219.171875 93.773438 212.804688 92.890625 C 206.4375 92.007812 200.039062 91.566406 193.609375 91.566406 C 187.179688 91.566406 180.78125 92.007812 174.414062 92.890625 C 168.042969 93.773438 161.765625 95.089844 155.582031 96.835938 C 154.597656 97.101562 153.601562 97.257812 152.585938 97.300781 C 151.570312 97.34375 150.5625 97.277344 149.5625 97.101562 C 148.5625 96.921875 147.59375 96.636719 146.65625 96.242188 C 145.71875 95.847656 144.835938 95.359375 144.007812 94.769531 C 135.128906 88.1875 125.4375 83.183594 114.933594 79.75 C 113.609375 86.226562 113.609375 92.703125 114.933594 99.179688 C 115.382812 101.644531 115.589844 104.132812 115.558594 106.640625 C 115.527344 109.148438 115.257812 111.628906 114.75 114.082031 C 114.246094 116.539062 113.507812 118.921875 112.542969 121.238281 C 111.574219 123.550781 110.398438 125.75 109.007812 127.835938 C 106.007812 132.398438 103.722656 137.296875 102.148438 142.527344 C 100.578125 147.757812 99.789062 153.101562 99.777344 158.5625 C 99.777344 212.160156 125.679688 226.492188 164.535156 231.449219 C 165.808594 231.609375 167.03125 231.9375 168.210938 232.4375 C 169.390625 232.9375 170.480469 233.585938 171.480469 234.390625 C 172.476562 235.195312 173.34375 236.117188 174.085938 237.164062 C 174.824219 238.210938 175.410156 239.335938 175.835938 240.542969 C 176.234375 241.71875 176.472656 242.921875 176.546875 244.15625 C 176.625 245.394531 176.535156 246.617188 176.28125 247.832031 C 176.027344 249.042969 175.613281 250.199219 175.046875 251.300781 C 174.480469 252.402344 173.777344 253.410156 172.941406 254.324219 C 171.601562 255.753906 170.421875 257.308594 169.40625 258.984375 C 168.386719 260.664062 167.550781 262.425781 166.898438 264.277344 C 166.246094 266.125 165.792969 268.023438 165.53125 269.964844 C 165.273438 271.910156 165.21875 273.859375 165.363281 275.816406 L 165.363281 312.878906 C 165.363281 313.785156 165.273438 314.679688 165.097656 315.570312 C 164.921875 316.457031 164.660156 317.316406 164.3125 318.152344 C 163.96875 318.988281 163.542969 319.785156 163.039062 320.535156 C 162.539062 321.289062 161.96875 321.984375 161.328125 322.625 C 160.6875 323.261719 159.992188 323.835938 159.238281 324.335938 C 158.488281 324.839844 157.691406 325.265625 156.855469 325.609375 C 156.019531 325.957031 155.160156 326.21875 154.273438 326.394531 C 153.386719 326.570312 152.488281 326.660156 151.585938 326.660156 C 150.679688 326.660156 149.785156 326.570312 148.894531 326.394531 C 148.007812 326.21875 147.148438 325.957031 146.3125 325.609375 C 145.476562 325.265625 144.683594 324.839844 143.929688 324.335938 C 143.175781 323.835938 142.480469 323.261719 141.839844 322.625 C 141.203125 321.984375 140.628906 321.289062 140.128906 320.535156 C 139.625 319.785156 139.199219 318.988281 138.855469 318.152344 C 138.507812 317.316406 138.246094 316.457031 138.070312 315.570312 C 137.894531 314.679688 137.804688 313.785156 137.804688 312.878906 L 137.804688 305.027344 C 134.433594 305.414062 131.050781 305.59375 127.65625 305.566406 C 124.261719 305.535156 120.882812 305.300781 117.519531 304.855469 C 114.152344 304.410156 110.828125 303.757812 107.542969 302.90625 C 104.257812 302.050781 101.039062 300.996094 97.882812 299.746094 C 94.730469 298.496094 91.664062 297.054688 88.683594 295.425781 C 85.707031 293.796875 82.839844 291.992188 80.085938 290.007812 C 77.332031 288.027344 74.707031 285.882812 72.214844 283.578125 C 69.722656 281.273438 67.382812 278.824219 65.195312 276.230469 C 60.632812 271.175781 55.308594 267.136719 49.210938 264.105469 C 48.332031 263.878906 47.488281 263.570312 46.667969 263.175781 C 45.851562 262.785156 45.082031 262.316406 44.359375 261.769531 C 43.632812 261.226562 42.96875 260.617188 42.363281 259.941406 C 41.761719 259.265625 41.226562 258.535156 40.765625 257.757812 C 40.304688 256.976562 39.925781 256.15625 39.625 255.300781 C 39.328125 254.445312 39.113281 253.570312 38.984375 252.671875 C 38.859375 251.773438 38.820312 250.875 38.871094 249.96875 C 38.921875 249.0625 39.058594 248.171875 39.285156 247.292969 C 39.511719 246.417969 39.824219 245.570312 40.214844 244.753906 C 40.609375 243.9375 41.078125 243.164062 41.621094 242.441406 C 42.167969 241.71875 42.777344 241.054688 43.453125 240.449219 C 44.128906 239.84375 44.859375 239.3125 45.640625 238.851562 C 46.417969 238.390625 47.238281 238.011719 48.09375 237.710938 C 48.949219 237.414062 49.824219 237.199219 50.722656 237.074219 C 51.621094 236.945312 52.523438 236.910156 53.425781 236.960938 C 54.332031 237.011719 55.222656 237.148438 56.101562 237.375 C 61.398438 239.304688 66.382812 241.855469 71.046875 245.027344 C 75.710938 248.199219 79.914062 251.894531 83.65625 256.113281 C 97.4375 269.890625 111.214844 282.015625 137.394531 277.058594 C 136.925781 269.578125 137.984375 262.324219 140.5625 255.289062 C 112.179688 248.121094 71.671875 227.730469 71.671875 158.839844 C 71.660156 154.78125 71.949219 150.746094 72.535156 146.730469 C 73.121094 142.714844 73.996094 138.765625 75.164062 134.878906 C 76.328125 130.992188 77.773438 127.210938 79.5 123.539062 C 81.222656 119.867188 83.207031 116.339844 85.449219 112.957031 C 86.285156 111.703125 86.859375 110.335938 87.167969 108.859375 C 87.480469 107.382812 87.503906 105.902344 87.238281 104.414062 C 86.546875 100.714844 86.125 96.988281 85.96875 93.226562 C 85.8125 89.464844 85.925781 85.714844 86.3125 81.972656 C 86.695312 78.226562 87.347656 74.53125 88.265625 70.882812 C 89.183594 67.230469 90.355469 63.667969 91.785156 60.1875 C 92.175781 59.253906 92.664062 58.375 93.25 57.546875 C 93.832031 56.722656 94.5 55.96875 95.25 55.292969 C 96 54.613281 96.816406 54.023438 97.695312 53.523438 C 98.574219 53.027344 99.5 52.628906 100.46875 52.332031 C 105.152344 50.953125 121.960938 48.199219 153.789062 68.867188 C 160.207031 67.320312 166.695312 66.160156 173.25 65.382812 C 179.808594 64.605469 186.386719 64.214844 192.988281 64.214844 C 199.589844 64.214844 206.167969 64.605469 212.726562 65.382812 C 219.28125 66.160156 225.769531 67.320312 232.1875 68.867188 C 264.015625 48.199219 280.824219 50.816406 285.371094 52.332031 C 286.339844 52.628906 287.261719 53.027344 288.144531 53.523438 C 289.023438 54.023438 289.835938 54.613281 290.585938 55.292969 C 291.335938 55.96875 292.003906 56.722656 292.589844 57.546875 C 293.175781 58.375 293.660156 59.253906 294.050781 60.1875 C 295.484375 63.679688 296.660156 67.253906 297.582031 70.917969 C 298.5 74.578125 299.152344 78.285156 299.535156 82.039062 C 299.921875 85.796875 300.035156 89.558594 299.878906 93.332031 C 299.71875 97.101562 299.292969 100.84375 298.597656 104.550781 C 298.3125 105.910156 298.304688 107.269531 298.566406 108.632812 C 298.828125 109.992188 299.34375 111.253906 300.113281 112.40625 C 302.363281 115.796875 304.351562 119.335938 306.078125 123.019531 C 307.804688 126.703125 309.253906 130.496094 310.421875 134.394531 C 311.585938 138.292969 312.460938 142.253906 313.042969 146.28125 C 313.625 150.308594 313.910156 154.355469 313.894531 158.425781 C 313.894531 228.28125 273.660156 248.535156 245 254.875 C 247.550781 262.339844 248.5625 270.011719 248.03125 277.882812 L 248.03125 312.878906 C 248.035156 313.75 247.953125 314.613281 247.792969 315.46875 C 247.628906 316.328125 247.386719 317.160156 247.070312 317.96875 C 246.75 318.777344 246.355469 319.550781 245.886719 320.289062 C 245.421875 321.023438 244.890625 321.707031 244.292969 322.34375 C 243.695312 322.976562 243.046875 323.550781 242.339844 324.0625 C 241.636719 324.574219 240.890625 325.011719 240.101562 325.382812 C 239.3125 325.75 238.496094 326.042969 237.652344 326.257812 C 236.808594 326.472656 235.949219 326.605469 235.082031 326.660156 Z M 235.082031 326.660156 " fill-opacity="1" fill-rule="nonzero"/></g></svg>