<svg xmlns="http://www.w3.org/2000/svg" xmlns:xlink="http://www.w3.org/1999/xlink" width="500" zoomAndPan="magnify" viewBox="0 0 375 374.999991" height="500" preserveAspectRatio="xMidYMid meet" version="1.0"><defs><clipPath id="743ab84414"><path d="M 21 317.523438 L 354 317.523438 L 354 368.523438 L 21 368.523438 Z M 21 317.523438 " clip-rule="nonzero"/></clipPath><clipPath id="824eb76e2f"><path d="M 43 8.339844 L 332.863281 8.339844 L 332.863281 310 L 43 310 Z M 43 8.339844 " clip-rule="nonzero"/></clipPath></defs><g clip-path="url(#743ab84414)"><path fill="#000000" d="M 41.886719 337.945312 L 25.734375 337.945312 L 25.734375 321.609375 L 42.761719 321.609375 C 48.992188 321.609375 52.109375 324.375 52.109375 329.894531 C 52.109375 335.257812 48.699219 337.9375 41.882812 337.9375 M 53.492188 321.417969 C 51.28125 319.421875 48.183594 318.425781 44.203125 318.425781 L 21.074219 318.554688 L 21.074219 357.640625 L 25.734375 357.640625 L 25.691406 341 L 42.902344 341 C 47.21875 341 50.613281 340.003906 53.09375 338.011719 C 55.570312 336.019531 56.804688 333.253906 56.804688 329.714844 C 56.804688 326.175781 55.699219 323.417969 53.476562 321.417969 Z M 83.660156 349.4375 C 83.1875 350.757812 82.449219 351.863281 81.441406 352.761719 C 79.355469 354.8125 76.171875 355.832031 71.886719 355.832031 C 68.019531 355.832031 65.050781 354.835938 62.976562 352.84375 C 60.90625 350.851562 59.871094 348.1875 59.871094 344.855469 C 59.871094 343.117188 60.140625 341.574219 60.683594 340.234375 C 61.226562 338.894531 62.011719 337.75 63.039062 336.824219 C 65.183594 334.859375 68.132812 333.875 71.886719 333.875 C 80.207031 333.875 84.363281 337.539062 84.363281 344.863281 C 84.363281 346.601562 84.125 348.132812 83.65625 349.449219 M 84.5 335.03125 C 81.660156 332.425781 77.457031 331.125 71.886719 331.125 C 66.625 331.125 62.558594 332.457031 59.691406 335.109375 C 57.105469 337.519531 55.808594 340.765625 55.808594 344.855469 C 55.808594 348.917969 57.144531 352.191406 59.816406 354.683594 C 61.292969 356.03125 63.011719 356.996094 64.96875 357.605469 C 66.921875 358.214844 69.234375 358.507812 71.878906 358.507812 C 77.417969 358.507812 81.636719 357.21875 84.53125 354.640625 C 87.121094 352.289062 88.417969 349.027344 88.417969 344.855469 C 88.417969 340.65625 87.105469 337.378906 84.492188 335.023438 Z M 119.753906 350.566406 C 119.753906 355.828125 115.066406 358.457031 105.695312 358.457031 C 102.828125 358.457031 100.417969 358.273438 98.453125 357.898438 C 96.492188 357.523438 94.902344 356.925781 93.679688 356.082031 C 92.734375 355.445312 91.984375 354.597656 91.425781 353.5625 C 90.867188 352.527344 90.507812 351.226562 90.34375 349.65625 L 94.703125 349.617188 C 94.703125 351.6875 95.464844 353.210938 97 354.191406 C 98.636719 355.367188 101.539062 355.953125 105.703125 355.953125 C 112.253906 355.953125 115.527344 354.304688 115.527344 351 C 115.527344 349.070312 114.429688 347.734375 112.230469 347.015625 C 111.785156 346.875 109.136719 346.503906 104.285156 345.902344 C 99.433594 345.300781 96.40625 344.761719 95.210938 344.285156 C 92.625 343.25 91.332031 341.390625 91.332031 338.703125 C 91.332031 336.074219 92.488281 334.113281 94.800781 332.824219 C 95.941406 332.292969 97.367188 331.882812 99.078125 331.585938 C 100.792969 331.292969 102.777344 331.144531 105.03125 331.144531 C 114.054688 331.144531 118.5625 333.992188 118.5625 339.6875 L 114.417969 339.6875 C 114.417969 335.683594 111.246094 333.683594 104.90625 333.683594 C 101.679688 333.683594 99.28125 334.082031 97.695312 334.898438 C 96.109375 335.71875 95.320312 336.957031 95.320312 338.644531 C 95.320312 340.210938 96.386719 341.355469 98.53125 342.046875 C 99.78125 342.410156 102.660156 342.832031 107.167969 343.304688 C 111.207031 343.667969 113.96875 344.183594 115.472656 344.859375 C 118.335938 345.976562 119.769531 347.882812 119.769531 350.566406 Z M 136.878906 357.6875 L 135.105469 357.9375 L 134 358.019531 C 131.160156 358.019531 129.113281 357.605469 127.855469 356.777344 C 126.601562 355.949219 125.972656 354.5 125.972656 352.425781 L 125.972656 334.59375 L 120.800781 334.59375 L 120.800781 331.960938 L 125.933594 331.960938 L 125.972656 323.535156 L 129.949219 323.535156 L 129.949219 331.96875 L 136.871094 331.96875 L 136.871094 334.636719 L 129.949219 334.59375 L 129.949219 351.949219 C 129.949219 353.242188 130.289062 354.132812 130.976562 354.625 C 131.667969 355.117188 132.878906 355.363281 134.621094 355.363281 C 134.871094 355.390625 135.152344 355.382812 135.457031 355.335938 C 135.761719 355.289062 136.222656 355.179688 136.835938 355.019531 L 136.878906 357.695312 Z M 164.375 351.777344 C 163.289062 352.671875 162.050781 353.355469 160.660156 353.832031 C 159.269531 354.308594 157.671875 354.546875 155.863281 354.546875 C 147.550781 354.546875 143.394531 351.089844 143.394531 344.183594 C 143.394531 340.96875 144.457031 338.449219 146.585938 336.632812 C 148.714844 334.816406 151.707031 333.90625 155.574219 333.90625 C 159.464844 333.90625 162.421875 334.824219 164.4375 336.652344 C 166.453125 338.484375 167.460938 340.941406 167.460938 344.015625 C 167.460938 347.363281 166.433594 349.960938 164.375 351.777344 M 171.4375 331.992188 L 167.460938 331.992188 L 167.417969 336.398438 C 165.667969 334.609375 164.414062 333.476562 163.664062 333 C 161.445312 331.769531 158.558594 331.15625 155.023438 331.15625 C 149.851562 331.15625 145.898438 332.34375 143.171875 334.722656 C 140.585938 336.90625 139.289062 340.066406 139.289062 344.207031 C 139.289062 346.25 139.617188 348.074219 140.273438 349.679688 C 140.929688 351.289062 141.882812 352.652344 143.136719 353.769531 C 145.867188 356.0625 149.726562 357.210938 154.714844 357.210938 C 160.703125 357.210938 164.953125 355.5625 167.460938 352.265625 L 167.460938 356.832031 C 167.460938 359.742188 166.550781 361.996094 164.726562 363.589844 C 162.90625 365.183594 159.90625 365.984375 155.734375 365.984375 C 151.8125 365.984375 149.015625 365.4375 147.347656 364.351562 C 146.09375 363.515625 145.230469 362.066406 144.757812 360.007812 L 140.667969 360.007812 C 141.113281 362.886719 142.332031 364.96875 144.300781 366.253906 C 146.582031 367.734375 150.4375 368.484375 155.863281 368.484375 C 166.246094 368.484375 171.4375 364.601562 171.4375 356.839844 L 171.4375 331.988281 Z M 192.9375 334.585938 C 191.75 334.390625 190.628906 334.292969 189.609375 334.292969 C 183.074219 334.292969 179.8125 337.898438 179.8125 345.105469 L 179.8125 357.640625 L 175.878906 357.640625 L 175.835938 331.992188 L 179.8125 332.03125 L 179.8125 336.605469 L 180.019531 336.605469 C 180.6875 334.804688 181.742188 333.433594 183.1875 332.507812 C 184.773438 331.605469 187.136719 331.152344 190.277344 331.152344 L 192.945312 331.152344 L 192.945312 334.585938 Z M 196.636719 343.191406 C 197.136719 340.277344 198.265625 338.011719 200.015625 336.421875 C 201.15625 335.496094 202.449219 334.804688 203.894531 334.339844 C 205.339844 333.878906 206.96875 333.648438 208.777344 333.648438 C 212.308594 333.648438 215.191406 334.621094 217.429688 336.570312 C 219.671875 338.519531 220.789062 340.726562 220.789062 343.183594 L 196.625 343.183594 M 221.167969 335.269531 C 219.777344 333.867188 218.050781 332.828125 215.988281 332.164062 C 213.929688 331.496094 211.519531 331.152344 208.765625 331.152344 C 203.613281 331.152344 199.621094 332.355469 196.78125 334.765625 C 193.941406 337.171875 192.519531 340.449219 192.519531 344.59375 C 192.519531 348.738281 193.886719 352.03125 196.613281 354.464844 C 199.5625 357.152344 203.722656 358.496094 209.09375 358.496094 C 211.234375 358.496094 213.214844 358.253906 215.039062 357.765625 C 216.863281 357.28125 218.457031 356.585938 219.820312 355.695312 C 222.210938 353.96875 223.730469 351.835938 224.371094 349.296875 L 220.074219 349.296875 C 218.597656 353.683594 214.925781 355.875 209.058594 355.875 C 204.914062 355.875 201.726562 354.804688 199.503906 352.65625 C 197.585938 350.820312 196.625 348.4375 196.625 345.511719 L 224.96875 345.511719 C 224.96875 341.160156 223.703125 337.75 221.167969 335.277344 Z M 266.96875 347.144531 C 266.96875 354.761719 260.859375 358.566406 248.648438 358.566406 C 241.332031 358.566406 235.992188 357.257812 232.625 354.632812 C 229.871094 352.476562 228.496094 349.1875 228.496094 344.765625 L 233.410156 344.765625 C 233.410156 351.875 238.480469 355.429688 248.648438 355.429688 C 253.519531 355.429688 257.039062 354.703125 259.210938 353.246094 C 261.046875 351.960938 261.964844 349.949219 261.964844 347.207031 C 261.964844 344.496094 260.714844 342.585938 258.207031 341.5 C 256.789062 340.914062 253.324219 340.171875 247.8125 339.269531 C 240.882812 338.207031 236.386719 337.144531 234.328125 336.082031 C 231.351562 334.515625 229.863281 331.859375 229.863281 328.113281 C 229.863281 324.617188 231.128906 322.015625 233.664062 320.308594 C 236.386719 318.460938 241.0625 317.523438 247.683594 317.523438 C 259.652344 317.523438 265.636719 321.523438 265.636719 329.519531 L 260.675781 329.519531 C 260.675781 323.527344 256.242188 320.53125 247.347656 320.53125 C 242.890625 320.53125 239.628906 321.136719 237.566406 322.339844 C 235.617188 323.628906 234.644531 325.515625 234.644531 328.007812 C 234.644531 330.613281 235.894531 332.449219 238.402344 333.511719 C 239.734375 334.128906 243.660156 334.980469 250.171875 336.074219 C 256.296875 337 260.429688 338.078125 262.574219 339.308594 C 265.503906 340.820312 266.957031 343.4375 266.957031 347.164062 Z M 306.898438 351.046875 C 305.058594 352.527344 302.984375 353.636719 300.671875 354.378906 C 298.359375 355.121094 295.757812 355.488281 292.90625 355.488281 C 287.054688 355.488281 282.328125 353.894531 278.726562 350.730469 C 275.125 347.570312 273.316406 343.335938 273.316406 338.0625 C 273.316406 332.558594 275.105469 328.261719 278.683594 325.195312 C 282.265625 322.128906 287.007812 320.582031 292.914062 320.582031 C 298.902344 320.582031 303.613281 322.191406 307.035156 325.40625 C 308.847656 326.96875 310.183594 328.800781 311.050781 330.902344 C 311.914062 333.007812 312.34375 335.386719 312.34375 338.070312 C 312.34375 343.546875 310.53125 347.878906 306.910156 351.0625 M 309.523438 353.65625 C 312.085938 351.839844 313.980469 349.636719 315.207031 347.042969 C 316.433594 344.445312 317.046875 341.46875 317.046875 338.085938 C 317.046875 332.015625 315.042969 327.148438 311.023438 323.484375 C 308.882812 321.472656 306.292969 319.976562 303.257812 318.996094 C 300.222656 318.019531 296.769531 317.523438 292.871094 317.523438 C 285.300781 317.523438 279.355469 319.371094 275.042969 323.0625 C 270.730469 326.753906 268.574219 331.757812 268.574219 338.078125 C 268.574219 344.230469 270.75 349.195312 275.105469 352.96875 C 279.460938 356.742188 285.40625 358.628906 292.949219 358.628906 C 295.898438 358.628906 298.472656 358.429688 300.667969 358.027344 C 302.867188 357.628906 304.734375 357.011719 306.261719 356.179688 L 313.523438 361.242188 L 316.558594 358.441406 L 309.523438 353.644531 Z M 353.855469 357.65625 L 320.265625 357.65625 L 320.265625 318.511719 L 324.886719 318.425781 L 324.886719 354.367188 L 353.902344 354.367188 L 353.859375 357.632812 Z M 353.855469 357.65625 " fill-opacity="1" fill-rule="nonzero"/></g><path fill="#0093e8" d="M 313.070312 195.601562 L 313.121094 195.550781 L 313.046875 195.601562 Z M 313.070312 195.601562 " fill-opacity="1" fill-rule="nonzero"/><path fill="#0093e8" d="M 275.886719 193.214844 L 275.914062 193.242188 L 275.914062 193.253906 L 275.875 193.265625 C 274.054688 193.933594 272.550781 194.207031 271.28125 194.773438 C 269.988281 195.289062 268.945312 196.230469 268.332031 197.433594 L 268.320312 197.460938 C 267.539062 198.902344 266.863281 201.464844 267.0625 205.820312 C 267.578125 206.195312 268.207031 206.484375 268.847656 206.6875 L 268.894531 206.699219 C 271.015625 207.351562 274.570312 207.777344 278.535156 207.714844 C 286.445312 207.628906 296.1875 205.757812 301.359375 203.320312 C 305.816406 201.199219 309.632812 198.640625 313.035156 195.601562 C 295.761719 199.21875 286.007812 198.25 280.019531 195.753906 C 278.460938 195.074219 277.09375 194.234375 275.886719 193.214844 Z M 275.886719 193.214844 " fill-opacity="1" fill-rule="nonzero"/><path fill="#0093e8" d="M 258.175781 60.449219 L 258.25 60.5625 L 258.339844 60.664062 Z M 258.175781 60.449219 " fill-opacity="1" fill-rule="nonzero"/><path fill="#0093e8" d="M 192.105469 250.613281 C 192.09375 250.296875 192.105469 249.972656 192.09375 249.65625 C 192.09375 249.53125 192.082031 249.445312 192.082031 249.320312 Z M 192.105469 250.613281 " fill-opacity="1" fill-rule="nonzero"/><path fill="#0093e8" d="M 178.863281 195.210938 C 178.132812 194.847656 177.28125 194.585938 176.363281 194.460938 L 176.324219 194.460938 L 176.324219 194.433594 L 176.0625 194.433594 C 175.410156 194.496094 174.457031 194.722656 172.597656 196.792969 C 168.277344 201.691406 166.773438 204.765625 163.207031 207.640625 C 159.640625 210.503906 155.023438 212.035156 145.78125 213.953125 C 142.859375 214.558594 141.175781 215.222656 140.070312 215.761719 C 140.433594 216.0625 140.398438 216.140625 140.9375 216.429688 C 142.292969 217.179688 144.027344 217.847656 145.429688 218.210938 C 149.398438 219.214844 155.925781 220.382812 162.730469 219.214844 C 169.535156 218.035156 176.613281 214.734375 182.652344 206.160156 C 183.695312 204.679688 183.808594 202.492188 182.953125 200.144531 C 182.101562 197.796875 180.191406 195.777344 178.863281 195.210938 Z M 178.863281 195.210938 " fill-opacity="1" fill-rule="nonzero"/><path fill="#0093e8" d="M 229.554688 27.195312 L 228.835938 27.332031 C 229.074219 27.28125 229.339844 27.257812 229.578125 27.207031 C 229.566406 27.207031 229.566406 27.195312 229.554688 27.195312 Z M 229.554688 27.195312 " fill-opacity="1" fill-rule="nonzero"/><path fill="#0093e8" d="M 264.476562 94.960938 C 256.054688 95.074219 251.332031 97.269531 248.847656 100.144531 C 245.332031 104.222656 245.007812 111.378906 247.191406 120.191406 C 249.363281 129.015625 253.84375 138.882812 258.0625 147.082031 C 260.171875 151.1875 262.21875 154.878906 263.863281 157.878906 C 265.519531 160.890625 266.738281 163.023438 267.476562 164.84375 C 268.15625 166.527344 268.921875 168.007812 269.6875 169.390625 C 272.949219 162.421875 273.527344 155.582031 273.203125 148.449219 C 272.773438 139.625 270.742188 130.597656 271.042969 121.460938 C 271.382812 110.777344 273.464844 103.824219 273.640625 95.5625 C 270.890625 95.183594 267.703125 94.960938 264.476562 94.960938 Z M 266.035156 101.3125 L 266.019531 101.410156 C 266.019531 101.449219 266.019531 101.488281 266.019531 101.539062 C 266.019531 102.113281 265.859375 102.667969 265.570312 103.121094 L 265.582031 103.105469 C 265.191406 103.824219 264.742188 104.449219 264.214844 104.988281 C 262.984375 106.359375 261.339844 107.3125 259.480469 107.636719 L 259.429688 107.652344 C 259.167969 107.6875 258.867188 107.703125 258.550781 107.703125 C 256.96875 107.703125 255.515625 107.199219 254.320312 106.34375 L 254.347656 106.359375 C 253.730469 105.929688 253.191406 105.441406 252.753906 104.890625 L 252.738281 104.875 C 252.351562 104.449219 252.074219 103.898438 251.960938 103.308594 L 251.960938 103.28125 C 251.960938 103.21875 251.949219 103.15625 251.949219 103.09375 C 251.949219 102.554688 252.148438 102.050781 252.488281 101.675781 C 252.890625 101.210938 253.367188 100.835938 253.917969 100.558594 L 253.945312 100.546875 C 255.136719 99.867188 256.742188 99.367188 258.5625 99.089844 C 259.242188 98.988281 259.921875 98.9375 260.546875 98.925781 L 260.546875 98.964844 L 261.164062 98.964844 C 261.980469 98.988281 262.730469 99.078125 263.398438 99.242188 C 264.0625 99.390625 264.640625 99.617188 265.105469 99.929688 C 265.570312 100.246094 265.921875 100.722656 266.035156 101.3125 Z M 266.035156 101.3125 " fill-opacity="1" fill-rule="nonzero"/><path fill="#0093e8" d="M 126.324219 150.28125 C 126.324219 148.023438 126.5 145.8125 126.828125 143.640625 L 126.800781 143.878906 C 128.082031 134.605469 128.257812 125.929688 128.109375 119.074219 C 127.957031 112.394531 127.480469 107.953125 127.480469 105.179688 C 127.480469 105.140625 127.480469 105.101562 127.480469 105.066406 C 127.480469 105.027344 127.480469 104.976562 127.480469 104.941406 L 127.480469 104.875 L 127.46875 104.800781 L 127.46875 104.789062 C 127.46875 104.765625 127.46875 104.75 127.46875 104.726562 C 127.46875 89.863281 130.078125 75.613281 134.8125 62.394531 C 138.289062 53.054688 143.460938 43.578125 151.207031 35.894531 C 143.585938 33.359375 130.078125 29.492188 115.441406 28.765625 C 114.035156 28.6875 112.390625 28.640625 110.746094 28.640625 L 110.734375 28.640625 L 110.734375 28.652344 C 109.164062 28.652344 107.582031 28.703125 106.027344 28.789062 C 93.496094 29.519531 81.648438 33.195312 73.183594 42.285156 C 64.699219 51.375 59.113281 66.273438 60.332031 90.941406 C 60.570312 95.613281 62.578125 108.691406 66.015625 124.234375 C 69.46875 139.777344 74.328125 158.066406 80.179688 174.222656 C 86.039062 190.378906 93.144531 204.4375 99.898438 211.09375 C 103.300781 214.417969 106.25 215.761719 108.925781 215.648438 C 111.613281 215.523438 114.851562 213.953125 118.804688 209.148438 C 126.574219 199.679688 133.917969 191.308594 141.503906 183.171875 L 141.25 183.4375 C 132.085938 175.339844 126.324219 163.503906 126.324219 150.28125 Z M 126.324219 150.28125 " fill-opacity="1" fill-rule="nonzero"/><path fill="#0093e8" d="M 193.097656 28.023438 L 193.097656 28 C 178.433594 28.035156 167.925781 32.519531 159.941406 39.234375 C 151.722656 46.175781 146.210938 55.679688 142.582031 65.410156 C 138.277344 76.957031 136.808594 88.128906 136.21875 95.710938 L 136.378906 95.613281 C 140.8125 93.101562 146.625 90.589844 152.851562 89.132812 C 159.078125 87.679688 165.78125 87.238281 171.855469 89.625 C 177.933594 92.007812 182.953125 97.621094 184.773438 106.132812 C 193.5 147.019531 182.0625 162.222656 177.84375 173.695312 C 176.5 176.996094 175.109375 181.242188 173.941406 185.570312 L 173.738281 186.414062 C 174.265625 186.285156 174.808594 186.136719 175.335938 186.085938 C 178.308594 185.835938 180.644531 186.839844 182.023438 187.441406 C 186.269531 189.222656 189.179688 192.964844 190.75 197.234375 C 191.164062 198.351562 191.453125 199.554688 191.628906 200.796875 C 191.792969 201.226562 191.878906 201.726562 191.878906 202.242188 C 191.878906 202.292969 191.878906 202.34375 191.878906 202.394531 C 191.679688 208.667969 191.554688 216.039062 191.554688 223.445312 C 191.554688 232.21875 191.730469 240.957031 192.054688 249.65625 C 192.34375 256.261719 192.757812 262.109375 193.273438 266.71875 C 193.8125 271.414062 194.566406 274.964844 195.042969 276.171875 C 196.625 280.1875 198.949219 285.449219 203.140625 289.027344 C 207.332031 292.589844 213.347656 294.976562 224.332031 292.589844 C 233.859375 290.519531 239.734375 287.644531 243.664062 283.515625 C 247.59375 279.382812 249.925781 273.632812 251.421875 264.835938 C 253.667969 251.652344 258.175781 213.429688 258.726562 206.234375 C 258.476562 200.8125 259.265625 196.644531 260.988281 193.46875 C 262.746094 190.203125 265.480469 188.207031 267.828125 187.128906 C 269.007812 186.589844 270.113281 186.222656 271.015625 185.960938 C 269.914062 184.367188 268.921875 183.035156 267.890625 181.742188 L 268.003906 181.878906 C 264.753906 177.914062 261.980469 173.355469 259.882812 168.449219 L 259.746094 168.085938 C 258.476562 165.460938 257.410156 163.476562 256.292969 161.53125 L 256.554688 162.019531 C 254.910156 159.007812 252.828125 155.242188 250.644531 151.011719 C 246.273438 142.539062 241.527344 132.269531 239.054688 122.261719 C 236.59375 112.269531 236.242188 101.925781 242.546875 94.632812 C 248.121094 88.15625 257.925781 85.46875 272.625 86.976562 C 272.199219 85.65625 271.933594 84.566406 271.191406 82.808594 C 267.617188 74.398438 263.308594 67.140625 258.199219 60.5625 C 245.734375 44.46875 225.585938 28.539062 194.476562 28.023438 Z M 193.097656 28.023438 " fill-opacity="1" fill-rule="nonzero"/><path fill="#0093e8" d="M 136.042969 105.882812 L 136.066406 105.867188 L 136.105469 105.832031 Z M 136.042969 105.882812 " fill-opacity="1" fill-rule="nonzero"/><path fill="#0093e8" d="M 216.132812 13.625 C 216.347656 13.5625 216.574219 13.535156 216.773438 13.488281 L 217.023438 13.410156 Z M 216.132812 13.625 " fill-opacity="1" fill-rule="nonzero"/><path fill="#0093e8" d="M 154.496094 97.382812 L 154.621094 97.371094 L 154.722656 97.332031 Z M 154.496094 97.382812 " fill-opacity="1" fill-rule="nonzero"/><path fill="#0093e8" d="M 170.050781 170.746094 C 175.082031 157.011719 184.988281 146.992188 176.652344 107.902344 C 175.285156 101.5 172.585938 98.914062 168.867188 97.457031 C 167.0625 96.792969 164.964844 96.402344 162.769531 96.402344 C 162.628906 96.402344 162.480469 96.402344 162.339844 96.402344 L 162.367188 96.402344 C 159.691406 96.429688 157.105469 96.765625 154.621094 97.371094 C 149.347656 98.699219 144.703125 100.582031 140.386719 102.992188 C 138.765625 103.886719 137.371094 104.8125 136.066406 105.855469 L 135.828125 106.082031 C 135.902344 107.914062 136.253906 112.359375 136.40625 118.898438 C 136.554688 126.054688 136.378906 135.179688 135.011719 145.0625 C 132.050781 166.527344 147.441406 184.304688 165.515625 184.328125 C 166.585938 179.921875 168.316406 175.453125 170.050781 170.746094 Z M 159.367188 108.367188 C 158.777344 107.765625 158.296875 107.085938 157.910156 106.34375 L 157.882812 106.296875 C 157.558594 105.769531 157.371094 105.128906 157.371094 104.4375 C 157.371094 104.3125 157.382812 104.1875 157.394531 104.0625 L 157.394531 104.074219 C 157.582031 102.71875 158.6875 102.015625 159.753906 101.625 C 160.746094 101.300781 161.851562 101.109375 163.03125 101.109375 C 163.207031 101.109375 163.382812 101.109375 163.582031 101.125 L 163.570312 101.074219 C 164.222656 101.074219 164.925781 101.136719 165.628906 101.234375 C 167.527344 101.5 169.21875 102.015625 170.5 102.769531 C 171.140625 103.121094 171.695312 103.558594 172.132812 104.085938 L 172.144531 104.097656 C 172.570312 104.589844 172.824219 105.226562 172.824219 105.945312 C 172.824219 106.042969 172.824219 106.144531 172.8125 106.246094 L 172.8125 106.234375 C 172.683594 106.984375 172.347656 107.636719 171.882812 108.164062 C 171.367188 108.792969 170.789062 109.332031 170.136719 109.785156 L 170.113281 109.796875 C 168.84375 110.726562 167.25 111.277344 165.53125 111.277344 C 165.191406 111.277344 164.851562 111.253906 164.527344 111.214844 L 164.5625 111.214844 C 162.480469 110.863281 160.695312 109.835938 159.367188 108.367188 Z M 159.367188 108.367188 " fill-opacity="1" fill-rule="nonzero"/><path fill="#0093e8" d="M 140.132812 103.121094 C 140.222656 103.070312 140.308594 103.042969 140.386719 102.992188 C 140.398438 102.992188 140.410156 102.980469 140.421875 102.96875 Z M 140.132812 103.121094 " fill-opacity="1" fill-rule="nonzero"/><path fill="#0093e8" d="M 264.890625 55.441406 C 270.328125 62.40625 275.035156 70.34375 278.664062 78.851562 L 278.925781 79.542969 C 280.292969 82.859375 281.210938 85.65625 281.726562 87.828125 C 281.988281 88.921875 282.164062 89.835938 282.226562 90.792969 C 282.253906 91.269531 282.277344 91.757812 282.078125 92.597656 C 282.078125 92.636719 282.015625 92.726562 282 92.761719 C 282.378906 103.757812 279.679688 111.214844 279.367188 121.710938 C 279.113281 129.320312 281.035156 138.257812 281.511719 148.011719 C 281.964844 157.175781 280.871094 167.242188 274.984375 177.121094 C 275.488281 177.726562 275.925781 178.328125 276.402344 178.929688 C 291.957031 154.136719 303.167969 126.707031 309.144531 103.320312 C 312.34375 90.730469 314.039062 79.316406 314.1875 70.277344 C 314.316406 61.242188 312.644531 54.6875 310.535156 51.949219 C 293.890625 30.410156 271.382812 24.921875 252.5 24.773438 L 252.5 24.785156 L 250.691406 24.785156 C 243.414062 24.898438 236.382812 25.738281 229.589844 27.207031 C 245.007812 34.136719 256.679688 44.808594 264.890625 55.441406 Z M 264.890625 55.441406 " fill-opacity="1" fill-rule="nonzero"/><g clip-path="url(#824eb76e2f)"><path fill="#0093e8" d="M 195.167969 11.578125 L 195.042969 11.578125 C 180.429688 11.328125 167.890625 14.917969 157.757812 20.894531 C 147.792969 17.390625 127.117188 11.351562 105.308594 12.558594 C 90.132812 13.398438 73.5625 18.070312 61.285156 31.1875 C 49.046875 44.304688 42.578125 64.605469 43.9375 92.222656 C 44.3125 99.84375 46.457031 112.269531 50.011719 128.363281 C 53.578125 144.457031 58.574219 163.300781 64.8125 180.488281 C 71.050781 197.683594 77.878906 213.125 88.5625 223.621094 C 93.898438 228.882812 101.242188 233.300781 109.890625 232.9375 C 115.96875 232.683594 121.453125 229.984375 126.199219 226.007812 C 128.507812 229.082031 130.96875 230.425781 133.214844 231.667969 C 136.042969 233.238281 138.789062 234.304688 141.640625 235.007812 C 146.761719 236.300781 155.523438 238.03125 165.792969 236.261719 C 169.296875 235.671875 172.972656 234.519531 176.640625 232.875 C 176.777344 237.015625 176.941406 241.070312 177.089844 245.175781 C 177.605469 258.179688 177.921875 270.195312 181.773438 280.726562 C 182.390625 282.449219 184.097656 291.308594 190.789062 299.132812 C 197.480469 306.964844 210.609375 311.847656 225.546875 308.609375 C 236.09375 306.324219 249.488281 302.207031 258.402344 289.375 C 267.203125 276.699219 271.167969 258.507812 271.960938 229.007812 C 272.160156 227.414062 272.398438 226.054688 272.636719 224.789062 L 274.734375 224.976562 L 274.984375 224.976562 C 286.234375 225.492188 298.433594 223.871094 308.628906 219.078125 C 317.652344 214.847656 324.484375 210.566406 329.46875 202.96875 C 330.710938 201.085938 332.066406 198.816406 332.441406 194.898438 C 332.820312 190.980469 330.597656 184.855469 326.90625 182.03125 C 319.523438 176.355469 314.890625 178.515625 309.921875 179.558594 C 305.488281 180.601562 300.367188 181.253906 295.121094 181.390625 L 295.019531 181.390625 C 309.355469 156.949219 319.636719 130.988281 325.5 108.015625 C 328.976562 94.457031 330.921875 81.953125 331.074219 71.019531 C 331.238281 60.085938 330.359375 50.40625 323.878906 42.035156 C 303.65625 15.871094 275.222656 8.640625 253.214844 8.390625 C 252.539062 8.378906 251.847656 8.363281 251.171875 8.378906 L 251.171875 8.339844 C 239.195312 8.441406 227.671875 10.246094 216.761719 13.472656 L 216.246094 13.648438 C 209.945312 12.46875 202.625 11.714844 195.167969 11.578125 Z M 224.90625 19.574219 C 232.589844 17.679688 241.429688 16.539062 250.515625 16.425781 L 250.59375 16.425781 L 250.605469 16.375 C 271.417969 16.171875 297.996094 22.085938 317.089844 46.777344 C 321.382812 52.328125 322.664062 60.4375 322.511719 70.429688 C 322.347656 80.410156 320.527344 92.359375 317.191406 105.453125 C 310.710938 130.8125 298.484375 160.375 281.261719 186.902344 C 281.824219 187.316406 282.480469 187.679688 283.15625 187.957031 L 283.21875 187.980469 C 286.808594 189.488281 295.007812 190.78125 311.363281 187.378906 C 315.480469 186.5 318.496094 185.910156 321.621094 188.320312 C 323.027344 189.527344 323.90625 191.308594 323.90625 193.304688 C 323.90625 193.429688 323.90625 193.554688 323.894531 193.679688 L 323.894531 193.667969 C 323.703125 195.261719 323.140625 196.695312 322.273438 197.886719 C 319.109375 202.695312 312.871094 207.25 304.886719 211.003906 C 297.808594 214.34375 287.652344 216.089844 278.648438 216.191406 C 274.128906 216.238281 269.976562 215.886719 266.433594 214.769531 L 266.210938 214.683594 C 264.839844 227.988281 261.703125 254.265625 259.65625 266.253906 C 258.023438 275.917969 255.164062 283.601562 249.6875 289.351562 C 244.226562 295.101562 236.507812 298.566406 226.113281 300.824219 C 213.246094 303.625 203.855469 300.613281 197.804688 295.453125 C 191.765625 290.304688 189.003906 283.476562 187.335938 279.296875 C 186.191406 276.410156 185.601562 272.667969 185.027344 267.671875 C 184.449219 262.675781 184.035156 256.5625 183.746094 249.667969 C 183.46875 242.664062 183.316406 234.429688 183.316406 226.15625 C 183.316406 223.433594 183.34375 220.722656 183.367188 217.996094 C 178.183594 222.816406 171.628906 226.207031 164.351562 227.5 L 164.125 227.539062 C 155.574219 229.007812 147.953125 227.5625 143.398438 226.40625 C 140.976562 225.792969 138.867188 224.925781 136.882812 223.847656 C 134.796875 222.71875 132.816406 221.425781 131.484375 218.902344 C 130.957031 217.933594 130.644531 216.765625 130.644531 215.535156 C 130.644531 215.046875 130.695312 214.558594 130.792969 214.105469 C 131.246094 212.421875 132.1875 210.992188 133.480469 209.988281 L 133.492188 209.976562 C 135.953125 207.953125 139.191406 206.824219 144.101562 205.796875 C 153.015625 203.9375 156.128906 202.667969 158.023438 201.148438 C 159.628906 199.84375 161.460938 197.207031 164.675781 193.34375 C 164.664062 193.230469 164.652344 193.039062 164.636719 192.863281 L 164.636719 192.828125 C 158.5625 192.652344 152.902344 191.007812 147.953125 188.234375 L 148.144531 188.332031 C 146.285156 190.316406 136.78125 200.484375 125.207031 214.59375 C 120.335938 220.496094 114.953125 223.886719 109.277344 224.125 C 103.601562 224.363281 98.46875 221.472656 94.101562 217.195312 C 85.375 208.621094 78.421875 193.871094 72.355469 177.199219 C 66.304688 160.527344 61.386719 141.960938 57.882812 126.144531 C 54.367188 110.324219 52.308594 97.570312 52.007812 91.417969 C 50.703125 65.28125 56.742188 47.671875 67.097656 36.558594 C 77.464844 25.449219 91.675781 21.246094 105.523438 20.441406 C 130.390625 18.996094 153.992188 27.773438 158.777344 29.65625 C 167.988281 23.328125 179.851562 19.386719 194.652344 19.636719 C 202.109375 19.75 209.277344 20.742188 216.132812 22.511719 L 215.503906 22.375 L 215.757812 22.261719 C 218.15625 21.359375 221.21875 20.441406 224.355469 19.6875 Z M 224.90625 19.574219 " fill-opacity="1" fill-rule="nonzero"/></g></svg>