<svg xmlns="http://www.w3.org/2000/svg" xmlns:xlink="http://www.w3.org/1999/xlink" width="400" zoomAndPan="magnify" viewBox="0 0 300 74.999997" height="100" preserveAspectRatio="xMidYMid meet" version="1.0"><defs><g/><clipPath id="c8348b39d8"><path d="M 171 19 L 208 19 L 208 56 L 171 56 Z M 171 19 " clip-rule="nonzero"/></clipPath><clipPath id="0104c87996"><path d="M 178.230469 15.757812 L 211.347656 25.421875 L 201.472656 59.261719 L 168.355469 49.59375 Z M 178.230469 15.757812 " clip-rule="nonzero"/></clipPath><clipPath id="4182adae48"><path d="M 178.230469 15.757812 L 211.347656 25.421875 L 201.472656 59.261719 L 168.355469 49.59375 Z M 178.230469 15.757812 " clip-rule="nonzero"/></clipPath></defs><g fill="#7ed957" fill-opacity="1"><g transform="translate(1.370609, 53.014852)"><g><path d="M 12.808594 -38.984375 L 11.25 -27.566406 L 10.082031 -27.566406 C 8.410156 -27.566406 7.238281 -27.566406 6.515625 -27.457031 C 5.402344 -27.34375 4.621094 -27.011719 4.066406 -26.566406 C 3.5625 -26.0625 3.175781 -25.117188 2.839844 -23.726562 C 2.730469 -23.058594 2.507812 -21.71875 2.226562 -19.714844 L 10.136719 -19.714844 L 9.859375 -17.710938 L 8.742188 -9.859375 L 8.464844 -7.796875 C 8.132812 -5.734375 7.910156 -4.34375 7.796875 -3.621094 L 7.796875 -2.785156 C 7.796875 -2.117188 7.910156 -1.558594 8.132812 -1.167969 C 8.519531 -0.613281 9.410156 -0.222656 10.859375 -0.0546875 C 11.640625 -0.0546875 12.976562 0 14.925781 0 L 19.992188 0 C 22.164062 0 23.613281 -0.0546875 24.335938 -0.113281 C 25.453125 -0.277344 26.285156 -0.558594 26.789062 -1.003906 C 27.234375 -1.449219 27.625 -2.226562 27.902344 -3.230469 C 28.125 -4.011719 28.347656 -5.511719 28.625 -7.796875 L 16.375 -7.796875 L 16.652344 -9.859375 L 17.765625 -17.710938 L 18.042969 -19.714844 L 22.386719 -19.714844 C 24.726562 -19.714844 26.230469 -19.769531 26.957031 -19.828125 C 28.070312 -19.992188 28.90625 -20.273438 29.40625 -20.605469 C 29.90625 -21.050781 30.296875 -21.71875 30.574219 -22.609375 C 30.796875 -23.390625 31.078125 -25.007812 31.410156 -27.566406 L 19.15625 -27.566406 L 19.660156 -31.132812 C 19.992188 -33.082031 20.160156 -34.304688 20.160156 -34.808594 C 20.273438 -35.308594 20.273438 -35.699219 20.273438 -36.03125 C 20.273438 -36.644531 20.214844 -37.148438 20.050781 -37.480469 C 19.714844 -38.261719 18.824219 -38.707031 17.265625 -38.816406 C 16.429688 -38.929688 14.925781 -38.984375 12.808594 -38.984375 Z M 12.808594 -38.984375 "/></g></g></g><g fill="#7ed957" fill-opacity="1"><g transform="translate(32.502057, 53.014852)"><g><path d="M 11.917969 -27.625 C 9.355469 -27.625 7.6875 -27.566406 6.90625 -27.457031 C 5.902344 -27.34375 5.125 -27.011719 4.566406 -26.507812 C 4.066406 -26.0625 3.675781 -25.117188 3.398438 -23.78125 C 3.285156 -23.113281 3.0625 -21.832031 2.730469 -19.828125 L 1.058594 -7.910156 C 0.78125 -5.679688 0.613281 -4.234375 0.558594 -3.453125 L 0.558594 -3.0625 C 0.558594 -2.285156 0.667969 -1.726562 0.890625 -1.335938 C 1.226562 -0.835938 1.78125 -0.5 2.5625 -0.277344 C 3.339844 -0.167969 4.789062 -0.0546875 7.015625 -0.0546875 L 28.070312 -0.0546875 L 28.070312 -0.945312 C 28.070312 -2.617188 28.070312 -3.730469 27.957031 -4.398438 C 27.902344 -5.625 27.679688 -6.40625 27.234375 -6.851562 C 26.898438 -7.296875 26.285156 -7.574219 25.394531 -7.6875 C 24.78125 -7.796875 23.390625 -7.851562 21.21875 -7.851562 L 8.964844 -7.851562 C 9.078125 -8.464844 9.132812 -8.855469 9.132812 -9.023438 C 9.1875 -9.355469 9.246094 -9.578125 9.355469 -9.691406 C 9.46875 -9.800781 9.636719 -9.859375 9.800781 -9.859375 C 9.96875 -9.914062 10.246094 -9.914062 10.636719 -9.914062 L 22.332031 -9.914062 C 24.28125 -9.914062 25.617188 -9.96875 26.34375 -10.082031 C 27.457031 -10.191406 28.234375 -10.527344 28.738281 -10.972656 C 29.183594 -11.472656 29.574219 -12.253906 29.796875 -13.308594 C 30.019531 -14.035156 30.242188 -15.484375 30.519531 -17.710938 L 30.855469 -19.828125 C 31.078125 -21.609375 31.242188 -22.777344 31.300781 -23.390625 C 31.355469 -23.890625 31.355469 -24.28125 31.355469 -24.617188 C 31.355469 -25.730469 31.132812 -26.507812 30.574219 -26.898438 C 30.128906 -27.234375 29.292969 -27.457031 28.070312 -27.566406 C 27.402344 -27.625 26.0625 -27.625 24.058594 -27.625 Z M 12.03125 -19.769531 L 22.890625 -19.769531 C 22.832031 -19.15625 22.777344 -18.710938 22.722656 -18.488281 C 22.722656 -18.265625 22.667969 -18.15625 22.554688 -18.042969 C 22.445312 -17.933594 22.222656 -17.820312 21.886719 -17.765625 L 10.359375 -17.765625 C 10.46875 -18.433594 10.527344 -18.824219 10.527344 -18.992188 C 10.636719 -19.214844 10.691406 -19.382812 10.75 -19.492188 C 10.859375 -19.605469 10.972656 -19.714844 11.082031 -19.714844 C 11.195312 -19.769531 11.527344 -19.769531 12.03125 -19.769531 Z M 12.03125 -19.769531 "/></g></g></g><g fill="#7ed957" fill-opacity="1"><g transform="translate(64.357495, 53.014852)"><g><path d="M 11.027344 -27.566406 C 9.023438 -27.566406 7.628906 -27.566406 6.851562 -27.457031 C 5.847656 -27.34375 5.125 -27.011719 4.621094 -26.566406 C 4.121094 -26.121094 3.730469 -25.285156 3.453125 -24.113281 C 3.339844 -23.445312 3.117188 -22 2.785156 -19.769531 C 2.730469 -19.324219 2.507812 -17.65625 2.0625 -14.648438 C 1.613281 -11.695312 1.335938 -9.410156 1.113281 -7.851562 C 0.78125 -5.625 0.613281 -4.175781 0.558594 -3.398438 L 0.558594 -3.007812 C 0.558594 -2.226562 0.722656 -1.613281 0.945312 -1.226562 C 1.28125 -0.78125 1.835938 -0.445312 2.617188 -0.222656 C 3.398438 -0.113281 5.125 0 7.796875 0 L 20.273438 0 C 22.554688 0 24.058594 -0.0546875 24.78125 -0.113281 C 25.898438 -0.222656 26.730469 -0.5 27.234375 -0.890625 C 27.789062 -1.335938 28.179688 -2.117188 28.402344 -3.117188 C 28.625 -3.898438 28.847656 -5.457031 29.183594 -7.851562 L 9.023438 -7.851562 L 10.414062 -17.710938 C 10.527344 -18.265625 10.582031 -18.65625 10.582031 -18.824219 C 10.691406 -19.15625 10.804688 -19.382812 10.914062 -19.492188 C 11.027344 -19.605469 11.195312 -19.660156 11.417969 -19.660156 C 11.640625 -19.769531 12.195312 -19.769531 12.976562 -19.769531 L 22.945312 -19.769531 C 25.0625 -19.769531 26.453125 -19.828125 27.179688 -19.828125 C 28.515625 -19.9375 29.515625 -20.273438 30.074219 -20.773438 C 30.574219 -21.21875 30.964844 -22 31.1875 -23.058594 C 31.410156 -23.835938 31.632812 -25.339844 31.96875 -27.566406 Z M 11.027344 -27.566406 "/></g></g></g><g fill="#7ed957" fill-opacity="1"><g transform="translate(95.990162, 53.014852)"><g><path d="M 6.015625 -39.039062 L 4.066406 -24.894531 L 1.671875 -7.851562 L 0.558594 -0.0546875 L 1.058594 -0.0546875 C 3.175781 -0.0546875 4.566406 -0.113281 5.289062 -0.167969 C 6.238281 -0.277344 6.960938 -0.5 7.40625 -0.835938 C 8.019531 -1.28125 8.464844 -2.0625 8.742188 -3.175781 C 8.964844 -3.953125 9.246094 -5.511719 9.578125 -7.851562 L 11.25 -19.769531 L 23.503906 -19.769531 L 21.832031 -7.851562 L 20.71875 -0.0546875 L 21.273438 -0.0546875 C 23.558594 -0.0546875 25.117188 -0.113281 25.898438 -0.222656 C 27.011719 -0.445312 27.789062 -0.835938 28.234375 -1.390625 C 28.625 -1.894531 28.90625 -2.617188 29.128906 -3.621094 C 29.292969 -4.34375 29.515625 -5.734375 29.738281 -7.851562 L 31.410156 -19.769531 C 31.746094 -22.222656 31.910156 -23.835938 31.910156 -24.558594 C 31.910156 -25.5625 31.800781 -26.230469 31.410156 -26.621094 C 31.078125 -27.066406 30.464844 -27.34375 29.574219 -27.457031 C 28.847656 -27.566406 27.511719 -27.625 25.5625 -27.625 L 12.363281 -27.625 L 12.863281 -31.1875 C 13.253906 -33.359375 13.476562 -34.808594 13.476562 -35.53125 C 13.535156 -35.753906 13.535156 -35.976562 13.535156 -36.199219 C 13.535156 -36.925781 13.421875 -37.480469 13.144531 -37.816406 C 12.808594 -38.371094 12.140625 -38.707031 11.082031 -38.875 C 10.304688 -38.984375 8.632812 -39.039062 6.015625 -39.039062 Z M 6.015625 -39.039062 "/></g></g></g><g fill="#7ed957" fill-opacity="1"><g transform="translate(128.458205, 53.014852)"><g><path d="M 0.558594 0 C 3.007812 0 4.566406 -0.0546875 5.289062 -0.113281 C 6.238281 -0.222656 6.90625 -0.445312 7.351562 -0.78125 C 7.964844 -1.167969 8.410156 -1.78125 8.6875 -2.671875 C 8.910156 -3.453125 9.246094 -5.179688 9.578125 -7.851562 C 6.960938 -7.851562 5.234375 -7.796875 4.457031 -7.628906 C 3.507812 -7.519531 2.839844 -7.238281 2.339844 -6.738281 C 1.894531 -6.292969 1.503906 -5.457031 1.226562 -4.34375 Z M 0.558594 0 "/></g></g></g><g fill="#7ed957" fill-opacity="1"><g transform="translate(138.538333, 53.014852)"><g><path d="M 3.339844 -19.714844 L 3.0625 -17.710938 L 1.949219 -9.859375 L 1.671875 -7.796875 L 0.558594 0 C 2.953125 0 4.511719 -0.0546875 5.234375 -0.113281 C 6.238281 -0.277344 7.015625 -0.558594 7.460938 -0.890625 C 8.019531 -1.335938 8.464844 -2.003906 8.6875 -2.953125 C 8.910156 -3.730469 9.246094 -5.347656 9.578125 -7.796875 L 9.859375 -9.859375 L 10.972656 -17.710938 C 11.082031 -18.324219 11.136719 -18.710938 11.136719 -18.878906 C 11.25 -19.214844 11.417969 -19.4375 11.527344 -19.546875 C 11.695312 -19.660156 11.863281 -19.714844 12.085938 -19.714844 C 12.195312 -19.769531 12.363281 -19.769531 12.53125 -19.769531 C 12.753906 -19.769531 13.03125 -19.769531 13.308594 -19.714844 L 23.503906 -19.714844 L 23.222656 -17.710938 L 22.109375 -9.859375 L 21.832031 -7.796875 L 20.71875 0 C 23.445312 0 25.230469 -0.113281 26.007812 -0.222656 C 26.957031 -0.445312 27.625 -0.78125 28.070312 -1.28125 C 28.515625 -1.726562 28.792969 -2.449219 29.015625 -3.339844 C 29.238281 -4.066406 29.460938 -5.570312 29.738281 -7.796875 L 30.019531 -9.859375 L 31.132812 -17.710938 L 31.410156 -19.714844 C 31.746094 -22.164062 31.910156 -23.78125 31.910156 -24.503906 L 31.910156 -24.894531 C 31.855469 -25.839844 31.578125 -26.507812 31.132812 -26.84375 C 30.796875 -27.179688 30.242188 -27.34375 29.515625 -27.457031 C 28.847656 -27.566406 27.789062 -27.566406 26.285156 -27.566406 L 10.636719 -27.566406 C 9.1875 -27.566406 8.132812 -27.566406 7.460938 -27.457031 C 6.570312 -27.34375 5.902344 -27.121094 5.457031 -26.789062 C 4.902344 -26.398438 4.457031 -25.675781 4.121094 -24.617188 C 3.953125 -23.890625 3.675781 -22.277344 3.339844 -19.714844 Z M 3.339844 -19.714844 "/></g></g></g><g clip-path="url(#c8348b39d8)"><g clip-path="url(#0104c87996)"><g clip-path="url(#4182adae48)"><path fill="#7ed957" d="M 171.71875 38.488281 L 173.277344 44.871094 C 173.328125 45.074219 173.484375 45.238281 173.683594 45.296875 L 179.722656 47.058594 L 181.199219 53.109375 C 181.25 53.316406 181.40625 53.476562 181.605469 53.535156 L 187.914062 55.378906 C 188.117188 55.4375 188.335938 55.382812 188.488281 55.238281 L 192.988281 50.929688 L 198.972656 52.675781 C 199.171875 52.734375 199.390625 52.679688 199.542969 52.535156 L 204.289062 47.992188 C 204.441406 47.847656 204.503906 47.632812 204.457031 47.429688 L 202.976562 41.375 L 207.480469 37.070312 C 207.632812 36.921875 207.695312 36.707031 207.644531 36.503906 L 206.085938 30.121094 C 206.035156 29.917969 205.878906 29.753906 205.679688 29.695312 L 199.695312 27.949219 L 198.21875 21.898438 C 198.167969 21.691406 198.011719 21.53125 197.8125 21.472656 L 191.503906 19.628906 C 191.300781 19.570312 191.082031 19.625 190.929688 19.769531 L 186.429688 24.078125 L 180.390625 22.316406 C 180.191406 22.257812 179.972656 22.308594 179.820312 22.453125 L 175.074219 26.996094 C 174.921875 27.140625 174.855469 27.359375 174.90625 27.5625 L 176.386719 33.613281 L 171.882812 37.921875 C 171.730469 38.066406 171.667969 38.28125 171.71875 38.488281 Z M 193.964844 33.429688 L 195.363281 39.152344 L 191.105469 43.226562 L 185.453125 41.574219 L 184.054688 35.851562 L 188.3125 31.78125 Z M 187.917969 54.152344 L 182.261719 52.5 L 180.863281 46.777344 L 185.121094 42.707031 L 190.777344 44.355469 L 192.175781 50.078125 Z M 203.230469 47.378906 L 198.972656 51.449219 L 193.320312 49.800781 L 191.921875 44.078125 L 196.179688 40.003906 L 201.832031 41.65625 Z M 206.421875 36.453125 L 202.164062 40.523438 L 196.507812 38.875 L 195.109375 33.152344 L 199.367188 29.078125 L 205.023438 30.730469 Z M 191.5 20.855469 L 197.15625 22.507812 L 198.554688 28.230469 L 194.296875 32.300781 L 188.640625 30.652344 L 187.242188 24.929688 Z M 176.132812 27.613281 L 180.390625 23.539062 L 186.042969 25.191406 L 187.441406 30.914062 L 183.183594 34.984375 L 177.53125 33.335938 Z M 177.199219 34.464844 L 182.855469 36.117188 L 184.253906 41.839844 L 179.996094 45.910156 L 174.339844 44.261719 L 172.941406 38.539062 Z M 177.199219 34.464844 " fill-opacity="1" fill-rule="nonzero"/></g></g></g><g fill="#7ed957" fill-opacity="1"><g transform="translate(205.965882, 52.032172)"><g><path d="M 12.648438 -38.5 L 11.109375 -27.222656 L 9.953125 -27.222656 C 8.304688 -27.222656 7.148438 -27.222656 6.433594 -27.113281 C 5.335938 -27.003906 4.566406 -26.671875 4.015625 -26.234375 C 3.519531 -25.738281 3.136719 -24.804688 2.804688 -23.429688 C 2.695312 -22.769531 2.476562 -21.449219 2.199219 -19.46875 L 10.007812 -19.46875 L 9.734375 -17.488281 L 8.632812 -9.734375 L 8.359375 -7.699219 C 8.03125 -5.664062 7.808594 -4.289062 7.699219 -3.574219 L 7.699219 -2.75 C 7.699219 -2.089844 7.808594 -1.539062 8.03125 -1.15625 C 8.414062 -0.605469 9.292969 -0.21875 10.722656 -0.0546875 C 11.496094 -0.0546875 12.8125 0 14.738281 0 L 19.742188 0 C 21.890625 0 23.320312 -0.0546875 24.035156 -0.109375 C 25.132812 -0.273438 25.957031 -0.550781 26.453125 -0.988281 C 26.894531 -1.429688 27.277344 -2.199219 27.554688 -3.191406 C 27.773438 -3.960938 27.992188 -5.445312 28.269531 -7.699219 L 16.167969 -7.699219 L 16.445312 -9.734375 L 17.542969 -17.488281 L 17.820312 -19.46875 L 22.109375 -19.46875 C 24.417969 -19.46875 25.902344 -19.523438 26.617188 -19.578125 C 27.71875 -19.742188 28.542969 -20.019531 29.039062 -20.347656 C 29.535156 -20.789062 29.917969 -21.449219 30.195312 -22.328125 C 30.414062 -23.097656 30.6875 -24.695312 31.019531 -27.222656 L 18.917969 -27.222656 L 19.414062 -30.742188 C 19.742188 -32.667969 19.910156 -33.878906 19.910156 -34.375 C 20.019531 -34.867188 20.019531 -35.253906 20.019531 -35.582031 C 20.019531 -36.1875 19.964844 -36.683594 19.800781 -37.011719 C 19.46875 -37.785156 18.589844 -38.222656 17.050781 -38.332031 C 16.222656 -38.441406 14.738281 -38.5 12.648438 -38.5 Z M 12.648438 -38.5 "/></g></g></g><g fill="#7ed957" fill-opacity="1"><g transform="translate(236.708646, 52.032172)"><g><path d="M 11.769531 -27.277344 C 9.238281 -27.277344 7.589844 -27.222656 6.820312 -27.113281 C 5.828125 -27.003906 5.058594 -26.671875 4.511719 -26.179688 C 4.015625 -25.738281 3.628906 -24.804688 3.355469 -23.484375 C 3.246094 -22.824219 3.023438 -21.558594 2.695312 -19.578125 L 1.046875 -7.808594 C 0.769531 -5.609375 0.605469 -4.179688 0.550781 -3.410156 L 0.550781 -3.023438 C 0.550781 -2.253906 0.660156 -1.703125 0.878906 -1.320312 C 1.210938 -0.824219 1.761719 -0.496094 2.53125 -0.273438 C 3.300781 -0.164062 4.730469 -0.0546875 6.929688 -0.0546875 L 27.71875 -0.0546875 L 27.71875 -0.933594 C 27.71875 -2.585938 27.71875 -3.683594 27.609375 -4.34375 C 27.554688 -5.554688 27.332031 -6.324219 26.894531 -6.765625 C 26.5625 -7.203125 25.957031 -7.480469 25.078125 -7.589844 C 24.472656 -7.699219 23.097656 -7.753906 20.953125 -7.753906 L 8.855469 -7.753906 C 8.964844 -8.359375 9.019531 -8.746094 9.019531 -8.910156 C 9.074219 -9.238281 9.128906 -9.460938 9.238281 -9.570312 C 9.347656 -9.679688 9.515625 -9.734375 9.679688 -9.734375 C 9.84375 -9.789062 10.121094 -9.789062 10.503906 -9.789062 L 22.054688 -9.789062 C 23.980469 -9.789062 25.300781 -9.84375 26.015625 -9.953125 C 27.113281 -10.066406 27.882812 -10.394531 28.378906 -10.835938 C 28.820312 -11.328125 29.203125 -12.097656 29.421875 -13.144531 C 29.644531 -13.859375 29.863281 -15.289062 30.136719 -17.488281 L 30.46875 -19.578125 C 30.6875 -21.339844 30.855469 -22.492188 30.910156 -23.097656 C 30.964844 -23.59375 30.964844 -23.980469 30.964844 -24.308594 C 30.964844 -25.410156 30.742188 -26.179688 30.195312 -26.5625 C 29.753906 -26.894531 28.929688 -27.113281 27.71875 -27.222656 C 27.058594 -27.277344 25.738281 -27.277344 23.757812 -27.277344 Z M 11.878906 -19.523438 L 22.605469 -19.523438 C 22.550781 -18.917969 22.492188 -18.480469 22.4375 -18.257812 C 22.4375 -18.039062 22.382812 -17.929688 22.273438 -17.820312 C 22.164062 -17.710938 21.945312 -17.597656 21.613281 -17.542969 L 10.230469 -17.542969 C 10.339844 -18.203125 10.394531 -18.589844 10.394531 -18.753906 C 10.503906 -18.972656 10.558594 -19.140625 10.613281 -19.25 C 10.722656 -19.359375 10.835938 -19.46875 10.945312 -19.46875 C 11.054688 -19.523438 11.382812 -19.523438 11.878906 -19.523438 Z M 11.878906 -19.523438 "/></g></g></g><g fill="#7ed957" fill-opacity="1"><g transform="translate(268.166369, 52.032172)"><g><path d="M 2.695312 -19.523438 L 2.417969 -17.488281 C 2.089844 -15.34375 1.871094 -13.914062 1.761719 -13.144531 L 1.761719 -12.484375 C 1.761719 -11.605469 1.980469 -11 2.308594 -10.613281 C 2.75 -10.230469 3.464844 -9.953125 4.566406 -9.84375 C 5.226562 -9.789062 6.324219 -9.734375 7.808594 -9.734375 L 21.285156 -9.734375 C 21.230469 -9.238281 21.175781 -8.910156 21.117188 -8.691406 C 21.117188 -8.414062 21.007812 -8.195312 20.898438 -8.03125 C 20.789062 -7.917969 20.625 -7.863281 20.402344 -7.753906 L 1.046875 -7.753906 C 0.714844 -5.335938 0.550781 -3.738281 0.550781 -2.96875 C 0.550781 -2.144531 0.660156 -1.539062 0.933594 -1.101562 C 1.265625 -0.714844 1.761719 -0.441406 2.417969 -0.273438 C 3.191406 -0.109375 4.949219 0 7.808594 0 L 19.910156 0 C 22.714844 0 24.527344 -0.109375 25.300781 -0.273438 C 26.125 -0.441406 26.730469 -0.769531 27.167969 -1.265625 C 27.5 -1.648438 27.71875 -2.144531 27.9375 -2.914062 C 28.160156 -3.683594 28.488281 -5.335938 28.820312 -7.753906 L 29.09375 -9.734375 C 29.367188 -11.933594 29.535156 -13.363281 29.535156 -14.023438 L 29.535156 -14.355469 C 29.535156 -15.398438 29.367188 -16.113281 28.984375 -16.5 C 28.597656 -16.996094 27.828125 -17.269531 26.617188 -17.378906 C 25.957031 -17.488281 24.527344 -17.488281 22.328125 -17.488281 L 10.230469 -17.488281 C 10.339844 -18.09375 10.394531 -18.480469 10.394531 -18.644531 C 10.449219 -18.863281 10.503906 -19.027344 10.613281 -19.140625 C 10.722656 -19.304688 10.945312 -19.414062 11.164062 -19.46875 C 11.382812 -19.523438 11.933594 -19.523438 12.703125 -19.523438 L 23.484375 -19.523438 C 25.242188 -19.523438 26.507812 -19.578125 27.167969 -19.632812 C 27.9375 -19.742188 28.488281 -19.855469 28.929688 -20.074219 C 29.699219 -20.460938 30.25 -21.175781 30.578125 -22.273438 C 30.855469 -23.042969 31.183594 -24.695312 31.511719 -27.222656 L 11.109375 -27.222656 C 9.128906 -27.222656 7.753906 -27.222656 6.984375 -27.113281 C 5.996094 -27.003906 5.28125 -26.785156 4.785156 -26.398438 C 4.234375 -26.015625 3.792969 -25.242188 3.519531 -24.144531 C 3.300781 -23.429688 3.023438 -21.890625 2.695312 -19.523438 Z M 2.695312 -19.523438 "/></g></g></g></svg>