<svg xmlns="http://www.w3.org/2000/svg" xmlns:xlink="http://www.w3.org/1999/xlink" width="400" zoomAndPan="magnify" viewBox="0 0 300 74.999997" height="100" preserveAspectRatio="xMidYMid meet" version="1.0"><defs><g/><clipPath id="5a1fc8723a"><path d="M 171 19 L 208 19 L 208 56 L 171 56 Z M 171 19 " clip-rule="nonzero"/></clipPath><clipPath id="8df1773c25"><path d="M 178.230469 15.757812 L 211.347656 25.421875 L 201.472656 59.261719 L 168.355469 49.59375 Z M 178.230469 15.757812 " clip-rule="nonzero"/></clipPath><clipPath id="574030c94f"><path d="M 178.230469 15.757812 L 211.347656 25.421875 L 201.472656 59.261719 L 168.355469 49.59375 Z M 178.230469 15.757812 " clip-rule="nonzero"/></clipPath><clipPath id="1743e76a70"><path d="M 183 31 L 196 31 L 196 44 L 183 44 Z M 183 31 " clip-rule="nonzero"/></clipPath><clipPath id="c67545a444"><path d="M 182.957031 32.953125 L 193.105469 30.269531 L 196.175781 41.871094 L 186.023438 44.554688 Z M 182.957031 32.953125 " clip-rule="nonzero"/></clipPath><clipPath id="fba72d4806"><path d="M 182.957031 32.953125 L 193.105469 30.269531 L 196.175781 41.871094 L 186.023438 44.554688 Z M 182.957031 32.953125 " clip-rule="nonzero"/></clipPath><clipPath id="7fa6cb2173"><path d="M 182.957031 32.957031 L 193.292969 30.222656 L 196.417969 42.035156 L 186.078125 44.765625 Z M 182.957031 32.957031 " clip-rule="nonzero"/></clipPath><clipPath id="afbec52e4c"><path d="M 182.957031 32.957031 L 193.289062 30.226562 L 196.410156 42.035156 L 186.078125 44.765625 Z M 182.957031 32.957031 " clip-rule="nonzero"/></clipPath><clipPath id="3483dd30d8"><path d="M 185 32 L 195 32 L 195 43 L 185 43 Z M 185 32 " clip-rule="nonzero"/></clipPath><clipPath id="e1a1ebcca4"><path d="M 182.957031 32.953125 L 193.105469 30.269531 L 196.175781 41.871094 L 186.023438 44.554688 Z M 182.957031 32.953125 " clip-rule="nonzero"/></clipPath><clipPath id="0acffd7d2b"><path d="M 182.957031 32.953125 L 193.105469 30.269531 L 196.175781 41.871094 L 186.023438 44.554688 Z M 182.957031 32.953125 " clip-rule="nonzero"/></clipPath><clipPath id="3568e97618"><path d="M 191 39 L 204 39 L 204 52 L 191 52 Z M 191 39 " clip-rule="nonzero"/></clipPath><clipPath id="e33a6787d9"><path d="M 190.816406 41.273438 L 201.691406 38.398438 L 204.949219 50.722656 L 194.074219 53.597656 Z M 190.816406 41.273438 " clip-rule="nonzero"/></clipPath><clipPath id="661dbe7c94"><path d="M 190.816406 41.273438 L 201.691406 38.398438 L 204.949219 50.722656 L 194.074219 53.597656 Z M 190.816406 41.273438 " clip-rule="nonzero"/></clipPath><clipPath id="5093ffd8ea"><path d="M 190.816406 41.273438 L 201.347656 38.488281 L 204.527344 50.519531 L 193.996094 53.304688 Z M 190.816406 41.273438 " clip-rule="nonzero"/></clipPath><clipPath id="b8f25df614"><path d="M 190.816406 41.273438 L 201.339844 38.492188 L 204.519531 50.519531 L 193.996094 53.300781 Z M 190.816406 41.273438 " clip-rule="nonzero"/></clipPath><clipPath id="d7c42d11a2"><path d="M 192 41 L 203 41 L 203 51 L 192 51 Z M 192 41 " clip-rule="nonzero"/></clipPath><clipPath id="3c94b66b54"><path d="M 190.816406 41.273438 L 201.691406 38.398438 L 204.949219 50.722656 L 194.074219 53.597656 Z M 190.816406 41.273438 " clip-rule="nonzero"/></clipPath><clipPath id="351bd22f25"><path d="M 190.816406 41.273438 L 201.691406 38.398438 L 204.949219 50.722656 L 194.074219 53.597656 Z M 190.816406 41.273438 " clip-rule="nonzero"/></clipPath><clipPath id="d61bbb6dec"><path d="M 180 42 L 193 42 L 193 55 L 180 55 Z M 180 42 " clip-rule="nonzero"/></clipPath><clipPath id="d0f20c7190"><path d="M 179.414062 43.820312 L 190.292969 40.945312 L 193.550781 53.273438 L 182.675781 56.148438 Z M 179.414062 43.820312 " clip-rule="nonzero"/></clipPath><clipPath id="ff32646c3d"><path d="M 179.414062 43.820312 L 190.292969 40.945312 L 193.550781 53.273438 L 182.675781 56.148438 Z M 179.414062 43.820312 " clip-rule="nonzero"/></clipPath><clipPath id="4fcec72d29"><path d="M 179.417969 43.824219 L 189.945312 41.039062 L 193.125 53.070312 L 182.597656 55.855469 Z M 179.417969 43.824219 " clip-rule="nonzero"/></clipPath><clipPath id="fbf952b707"><path d="M 179.417969 43.824219 L 189.941406 41.039062 L 193.121094 53.070312 L 182.597656 55.851562 Z M 179.417969 43.824219 " clip-rule="nonzero"/></clipPath><clipPath id="42abc1b899"><path d="M 181 43 L 192 43 L 192 54 L 181 54 Z M 181 43 " clip-rule="nonzero"/></clipPath><clipPath id="ab8c3980c3"><path d="M 179.414062 43.820312 L 190.292969 40.945312 L 193.550781 53.273438 L 182.675781 56.148438 Z M 179.414062 43.820312 " clip-rule="nonzero"/></clipPath><clipPath id="633ed3cd6f"><path d="M 179.414062 43.820312 L 190.292969 40.945312 L 193.550781 53.273438 L 182.675781 56.148438 Z M 179.414062 43.820312 " clip-rule="nonzero"/></clipPath><clipPath id="7b3e33aad2"><path d="M 172 33 L 186 33 L 186 47 L 172 47 Z M 172 33 " clip-rule="nonzero"/></clipPath><clipPath id="e5b7eaf666"><path d="M 171.902344 35.269531 L 182.78125 32.394531 L 186.039062 44.71875 L 175.160156 47.59375 Z M 171.902344 35.269531 " clip-rule="nonzero"/></clipPath><clipPath id="ca2dc5b8f1"><path d="M 171.902344 35.269531 L 182.78125 32.394531 L 186.039062 44.71875 L 175.160156 47.59375 Z M 171.902344 35.269531 " clip-rule="nonzero"/></clipPath><clipPath id="d7387ca3ec"><path d="M 171.902344 35.273438 L 182.636719 32.433594 L 185.878906 44.699219 L 175.144531 47.535156 Z M 171.902344 35.273438 " clip-rule="nonzero"/></clipPath><clipPath id="ad0982195e"><path d="M 171.902344 35.273438 L 182.632812 32.4375 L 185.875 44.699219 L 175.144531 47.535156 Z M 171.902344 35.273438 " clip-rule="nonzero"/></clipPath><clipPath id="a098c8767d"><path d="M 174 35 L 184 35 L 184 45 L 174 45 Z M 174 35 " clip-rule="nonzero"/></clipPath><clipPath id="def579ac01"><path d="M 171.902344 35.269531 L 182.78125 32.394531 L 186.039062 44.71875 L 175.160156 47.59375 Z M 171.902344 35.269531 " clip-rule="nonzero"/></clipPath><clipPath id="a18ea31325"><path d="M 171.902344 35.269531 L 182.78125 32.394531 L 186.039062 44.71875 L 175.160156 47.59375 Z M 171.902344 35.269531 " clip-rule="nonzero"/></clipPath><clipPath id="8ce47443c5"><path d="M 175 23 L 188 23 L 188 36 L 175 36 Z M 175 23 " clip-rule="nonzero"/></clipPath><clipPath id="4fc8241fd9"><path d="M 174.589844 24.71875 L 185.464844 21.84375 L 188.722656 34.167969 L 177.847656 37.042969 Z M 174.589844 24.71875 " clip-rule="nonzero"/></clipPath><clipPath id="8a398eb3b7"><path d="M 174.589844 24.71875 L 185.464844 21.84375 L 188.722656 34.167969 L 177.847656 37.042969 Z M 174.589844 24.71875 " clip-rule="nonzero"/></clipPath><clipPath id="d6d61c1602"><path d="M 174.589844 24.726562 L 185.425781 21.859375 L 188.699219 34.242188 L 177.863281 37.105469 Z M 174.589844 24.726562 " clip-rule="nonzero"/></clipPath><clipPath id="36e74b2c15"><path d="M 174.589844 24.726562 L 185.421875 21.863281 L 188.695312 34.242188 L 177.863281 37.105469 Z M 174.589844 24.726562 " clip-rule="nonzero"/></clipPath><clipPath id="d04ebecae7"><path d="M 176 24 L 187 24 L 187 35 L 176 35 Z M 176 24 " clip-rule="nonzero"/></clipPath><clipPath id="0044eef6eb"><path d="M 174.589844 24.71875 L 185.464844 21.84375 L 188.722656 34.167969 L 177.847656 37.042969 Z M 174.589844 24.71875 " clip-rule="nonzero"/></clipPath><clipPath id="e359d7e5f6"><path d="M 174.589844 24.71875 L 185.464844 21.84375 L 188.722656 34.167969 L 177.847656 37.042969 Z M 174.589844 24.71875 " clip-rule="nonzero"/></clipPath><clipPath id="164e99b9fc"><path d="M 186 20 L 199 20 L 199 33 L 186 33 Z M 186 20 " clip-rule="nonzero"/></clipPath><clipPath id="fc7869d371"><path d="M 185.824219 21.851562 L 196.699219 18.976562 L 199.957031 31.304688 L 189.082031 34.179688 Z M 185.824219 21.851562 " clip-rule="nonzero"/></clipPath><clipPath id="6c9ec5d1d4"><path d="M 185.824219 21.851562 L 196.699219 18.976562 L 199.957031 31.304688 L 189.082031 34.179688 Z M 185.824219 21.851562 " clip-rule="nonzero"/></clipPath><clipPath id="43d7ceb16c"><path d="M 185.824219 21.855469 L 196.511719 19.027344 L 199.742188 31.242188 L 189.050781 34.066406 Z M 185.824219 21.855469 " clip-rule="nonzero"/></clipPath><clipPath id="13df4f4631"><path d="M 185.824219 21.855469 L 196.507812 19.03125 L 199.734375 31.242188 L 189.050781 34.066406 Z M 185.824219 21.855469 " clip-rule="nonzero"/></clipPath><clipPath id="a199b8521d"><path d="M 187 21 L 198 21 L 198 32 L 187 32 Z M 187 21 " clip-rule="nonzero"/></clipPath><clipPath id="563b06d4c2"><path d="M 185.824219 21.851562 L 196.699219 18.976562 L 199.957031 31.304688 L 189.082031 34.179688 Z M 185.824219 21.851562 " clip-rule="nonzero"/></clipPath><clipPath id="3e438b0fe5"><path d="M 185.824219 21.851562 L 196.699219 18.976562 L 199.957031 31.304688 L 189.082031 34.179688 Z M 185.824219 21.851562 " clip-rule="nonzero"/></clipPath><clipPath id="e9694a74ed"><path d="M 194 28 L 207 28 L 207 41 L 194 41 Z M 194 28 " clip-rule="nonzero"/></clipPath><clipPath id="9b3810b89a"><path d="M 193.796875 30.21875 L 204.675781 27.34375 L 207.933594 39.671875 L 197.054688 42.546875 Z M 193.796875 30.21875 " clip-rule="nonzero"/></clipPath><clipPath id="667e233844"><path d="M 193.796875 30.21875 L 204.675781 27.34375 L 207.933594 39.671875 L 197.054688 42.546875 Z M 193.796875 30.21875 " clip-rule="nonzero"/></clipPath><clipPath id="7d7abf2828"><path d="M 193.796875 30.21875 L 204.351562 27.429688 L 207.539062 39.484375 L 196.984375 42.277344 Z M 193.796875 30.21875 " clip-rule="nonzero"/></clipPath><clipPath id="098573d078"><path d="M 193.796875 30.21875 L 204.34375 27.433594 L 207.53125 39.488281 L 196.984375 42.273438 Z M 193.796875 30.21875 " clip-rule="nonzero"/></clipPath><clipPath id="a69e58b154"><path d="M 195 30 L 206 30 L 206 40 L 195 40 Z M 195 30 " clip-rule="nonzero"/></clipPath><clipPath id="0c74850a96"><path d="M 193.796875 30.21875 L 204.675781 27.34375 L 207.933594 39.671875 L 197.054688 42.546875 Z M 193.796875 30.21875 " clip-rule="nonzero"/></clipPath><clipPath id="f76e40df3e"><path d="M 193.796875 30.21875 L 204.675781 27.34375 L 207.933594 39.671875 L 197.054688 42.546875 Z M 193.796875 30.21875 " clip-rule="nonzero"/></clipPath></defs><g fill="#7ed957" fill-opacity="1"><g transform="translate(1.370609, 53.014852)"><g><path d="M 12.808594 -38.984375 L 11.25 -27.566406 L 10.082031 -27.566406 C 8.410156 -27.566406 7.238281 -27.566406 6.515625 -27.457031 C 5.402344 -27.34375 4.621094 -27.011719 4.066406 -26.566406 C 3.5625 -26.0625 3.175781 -25.117188 2.839844 -23.726562 C 2.730469 -23.058594 2.507812 -21.71875 2.226562 -19.714844 L 10.136719 -19.714844 L 9.859375 -17.710938 L 8.742188 -9.859375 L 8.464844 -7.796875 C 8.132812 -5.734375 7.910156 -4.34375 7.796875 -3.621094 L 7.796875 -2.785156 C 7.796875 -2.117188 7.910156 -1.558594 8.132812 -1.167969 C 8.519531 -0.613281 9.410156 -0.222656 10.859375 -0.0546875 C 11.640625 -0.0546875 12.976562 0 14.925781 0 L 19.992188 0 C 22.164062 0 23.613281 -0.0546875 24.335938 -0.113281 C 25.453125 -0.277344 26.285156 -0.558594 26.789062 -1.003906 C 27.234375 -1.449219 27.625 -2.226562 27.902344 -3.230469 C 28.125 -4.011719 28.347656 -5.511719 28.625 -7.796875 L 16.375 -7.796875 L 16.652344 -9.859375 L 17.765625 -17.710938 L 18.042969 -19.714844 L 22.386719 -19.714844 C 24.726562 -19.714844 26.230469 -19.769531 26.957031 -19.828125 C 28.070312 -19.992188 28.90625 -20.273438 29.40625 -20.605469 C 29.90625 -21.050781 30.296875 -21.71875 30.574219 -22.609375 C 30.796875 -23.390625 31.078125 -25.007812 31.410156 -27.566406 L 19.15625 -27.566406 L 19.660156 -31.132812 C 19.992188 -33.082031 20.160156 -34.304688 20.160156 -34.808594 C 20.273438 -35.308594 20.273438 -35.699219 20.273438 -36.03125 C 20.273438 -36.644531 20.214844 -37.148438 20.050781 -37.480469 C 19.714844 -38.261719 18.824219 -38.707031 17.265625 -38.816406 C 16.429688 -38.929688 14.925781 -38.984375 12.808594 -38.984375 Z M 12.808594 -38.984375 "/></g></g></g><g fill="#7ed957" fill-opacity="1"><g transform="translate(32.502057, 53.014852)"><g><path d="M 11.917969 -27.625 C 9.355469 -27.625 7.6875 -27.566406 6.90625 -27.457031 C 5.902344 -27.34375 5.125 -27.011719 4.566406 -26.507812 C 4.066406 -26.0625 3.675781 -25.117188 3.398438 -23.78125 C 3.285156 -23.113281 3.0625 -21.832031 2.730469 -19.828125 L 1.058594 -7.910156 C 0.78125 -5.679688 0.613281 -4.234375 0.558594 -3.453125 L 0.558594 -3.0625 C 0.558594 -2.285156 0.667969 -1.726562 0.890625 -1.335938 C 1.226562 -0.835938 1.78125 -0.5 2.5625 -0.277344 C 3.339844 -0.167969 4.789062 -0.0546875 7.015625 -0.0546875 L 28.070312 -0.0546875 L 28.070312 -0.945312 C 28.070312 -2.617188 28.070312 -3.730469 27.957031 -4.398438 C 27.902344 -5.625 27.679688 -6.40625 27.234375 -6.851562 C 26.898438 -7.296875 26.285156 -7.574219 25.394531 -7.6875 C 24.78125 -7.796875 23.390625 -7.851562 21.21875 -7.851562 L 8.964844 -7.851562 C 9.078125 -8.464844 9.132812 -8.855469 9.132812 -9.023438 C 9.1875 -9.355469 9.246094 -9.578125 9.355469 -9.691406 C 9.46875 -9.800781 9.636719 -9.859375 9.800781 -9.859375 C 9.96875 -9.914062 10.246094 -9.914062 10.636719 -9.914062 L 22.332031 -9.914062 C 24.28125 -9.914062 25.617188 -9.96875 26.34375 -10.082031 C 27.457031 -10.191406 28.234375 -10.527344 28.738281 -10.972656 C 29.183594 -11.472656 29.574219 -12.253906 29.796875 -13.308594 C 30.019531 -14.035156 30.242188 -15.484375 30.519531 -17.710938 L 30.855469 -19.828125 C 31.078125 -21.609375 31.242188 -22.777344 31.300781 -23.390625 C 31.355469 -23.890625 31.355469 -24.28125 31.355469 -24.617188 C 31.355469 -25.730469 31.132812 -26.507812 30.574219 -26.898438 C 30.128906 -27.234375 29.292969 -27.457031 28.070312 -27.566406 C 27.402344 -27.625 26.0625 -27.625 24.058594 -27.625 Z M 12.03125 -19.769531 L 22.890625 -19.769531 C 22.832031 -19.15625 22.777344 -18.710938 22.722656 -18.488281 C 22.722656 -18.265625 22.667969 -18.15625 22.554688 -18.042969 C 22.445312 -17.933594 22.222656 -17.820312 21.886719 -17.765625 L 10.359375 -17.765625 C 10.46875 -18.433594 10.527344 -18.824219 10.527344 -18.992188 C 10.636719 -19.214844 10.691406 -19.382812 10.75 -19.492188 C 10.859375 -19.605469 10.972656 -19.714844 11.082031 -19.714844 C 11.195312 -19.769531 11.527344 -19.769531 12.03125 -19.769531 Z M 12.03125 -19.769531 "/></g></g></g><g fill="#7ed957" fill-opacity="1"><g transform="translate(64.357495, 53.014852)"><g><path d="M 11.027344 -27.566406 C 9.023438 -27.566406 7.628906 -27.566406 6.851562 -27.457031 C 5.847656 -27.34375 5.125 -27.011719 4.621094 -26.566406 C 4.121094 -26.121094 3.730469 -25.285156 3.453125 -24.113281 C 3.339844 -23.445312 3.117188 -22 2.785156 -19.769531 C 2.730469 -19.324219 2.507812 -17.65625 2.0625 -14.648438 C 1.613281 -11.695312 1.335938 -9.410156 1.113281 -7.851562 C 0.78125 -5.625 0.613281 -4.175781 0.558594 -3.398438 L 0.558594 -3.007812 C 0.558594 -2.226562 0.722656 -1.613281 0.945312 -1.226562 C 1.28125 -0.78125 1.835938 -0.445312 2.617188 -0.222656 C 3.398438 -0.113281 5.125 0 7.796875 0 L 20.273438 0 C 22.554688 0 24.058594 -0.0546875 24.78125 -0.113281 C 25.898438 -0.222656 26.730469 -0.5 27.234375 -0.890625 C 27.789062 -1.335938 28.179688 -2.117188 28.402344 -3.117188 C 28.625 -3.898438 28.847656 -5.457031 29.183594 -7.851562 L 9.023438 -7.851562 L 10.414062 -17.710938 C 10.527344 -18.265625 10.582031 -18.65625 10.582031 -18.824219 C 10.691406 -19.15625 10.804688 -19.382812 10.914062 -19.492188 C 11.027344 -19.605469 11.195312 -19.660156 11.417969 -19.660156 C 11.640625 -19.769531 12.195312 -19.769531 12.976562 -19.769531 L 22.945312 -19.769531 C 25.0625 -19.769531 26.453125 -19.828125 27.179688 -19.828125 C 28.515625 -19.9375 29.515625 -20.273438 30.074219 -20.773438 C 30.574219 -21.21875 30.964844 -22 31.1875 -23.058594 C 31.410156 -23.835938 31.632812 -25.339844 31.96875 -27.566406 Z M 11.027344 -27.566406 "/></g></g></g><g fill="#7ed957" fill-opacity="1"><g transform="translate(95.990162, 53.014852)"><g><path d="M 6.015625 -39.039062 L 4.066406 -24.894531 L 1.671875 -7.851562 L 0.558594 -0.0546875 L 1.058594 -0.0546875 C 3.175781 -0.0546875 4.566406 -0.113281 5.289062 -0.167969 C 6.238281 -0.277344 6.960938 -0.5 7.40625 -0.835938 C 8.019531 -1.28125 8.464844 -2.0625 8.742188 -3.175781 C 8.964844 -3.953125 9.246094 -5.511719 9.578125 -7.851562 L 11.25 -19.769531 L 23.503906 -19.769531 L 21.832031 -7.851562 L 20.71875 -0.0546875 L 21.273438 -0.0546875 C 23.558594 -0.0546875 25.117188 -0.113281 25.898438 -0.222656 C 27.011719 -0.445312 27.789062 -0.835938 28.234375 -1.390625 C 28.625 -1.894531 28.90625 -2.617188 29.128906 -3.621094 C 29.292969 -4.34375 29.515625 -5.734375 29.738281 -7.851562 L 31.410156 -19.769531 C 31.746094 -22.222656 31.910156 -23.835938 31.910156 -24.558594 C 31.910156 -25.5625 31.800781 -26.230469 31.410156 -26.621094 C 31.078125 -27.066406 30.464844 -27.34375 29.574219 -27.457031 C 28.847656 -27.566406 27.511719 -27.625 25.5625 -27.625 L 12.363281 -27.625 L 12.863281 -31.1875 C 13.253906 -33.359375 13.476562 -34.808594 13.476562 -35.53125 C 13.535156 -35.753906 13.535156 -35.976562 13.535156 -36.199219 C 13.535156 -36.925781 13.421875 -37.480469 13.144531 -37.816406 C 12.808594 -38.371094 12.140625 -38.707031 11.082031 -38.875 C 10.304688 -38.984375 8.632812 -39.039062 6.015625 -39.039062 Z M 6.015625 -39.039062 "/></g></g></g><g fill="#7ed957" fill-opacity="1"><g transform="translate(128.458205, 53.014852)"><g><path d="M 0.558594 0 C 3.007812 0 4.566406 -0.0546875 5.289062 -0.113281 C 6.238281 -0.222656 6.90625 -0.445312 7.351562 -0.78125 C 7.964844 -1.167969 8.410156 -1.78125 8.6875 -2.671875 C 8.910156 -3.453125 9.246094 -5.179688 9.578125 -7.851562 C 6.960938 -7.851562 5.234375 -7.796875 4.457031 -7.628906 C 3.507812 -7.519531 2.839844 -7.238281 2.339844 -6.738281 C 1.894531 -6.292969 1.503906 -5.457031 1.226562 -4.34375 Z M 0.558594 0 "/></g></g></g><g fill="#7ed957" fill-opacity="1"><g transform="translate(138.538333, 53.014852)"><g><path d="M 3.339844 -19.714844 L 3.0625 -17.710938 L 1.949219 -9.859375 L 1.671875 -7.796875 L 0.558594 0 C 2.953125 0 4.511719 -0.0546875 5.234375 -0.113281 C 6.238281 -0.277344 7.015625 -0.558594 7.460938 -0.890625 C 8.019531 -1.335938 8.464844 -2.003906 8.6875 -2.953125 C 8.910156 -3.730469 9.246094 -5.347656 9.578125 -7.796875 L 9.859375 -9.859375 L 10.972656 -17.710938 C 11.082031 -18.324219 11.136719 -18.710938 11.136719 -18.878906 C 11.25 -19.214844 11.417969 -19.4375 11.527344 -19.546875 C 11.695312 -19.660156 11.863281 -19.714844 12.085938 -19.714844 C 12.195312 -19.769531 12.363281 -19.769531 12.53125 -19.769531 C 12.753906 -19.769531 13.03125 -19.769531 13.308594 -19.714844 L 23.503906 -19.714844 L 23.222656 -17.710938 L 22.109375 -9.859375 L 21.832031 -7.796875 L 20.71875 0 C 23.445312 0 25.230469 -0.113281 26.007812 -0.222656 C 26.957031 -0.445312 27.625 -0.78125 28.070312 -1.28125 C 28.515625 -1.726562 28.792969 -2.449219 29.015625 -3.339844 C 29.238281 -4.066406 29.460938 -5.570312 29.738281 -7.796875 L 30.019531 -9.859375 L 31.132812 -17.710938 L 31.410156 -19.714844 C 31.746094 -22.164062 31.910156 -23.78125 31.910156 -24.503906 L 31.910156 -24.894531 C 31.855469 -25.839844 31.578125 -26.507812 31.132812 -26.84375 C 30.796875 -27.179688 30.242188 -27.34375 29.515625 -27.457031 C 28.847656 -27.566406 27.789062 -27.566406 26.285156 -27.566406 L 10.636719 -27.566406 C 9.1875 -27.566406 8.132812 -27.566406 7.460938 -27.457031 C 6.570312 -27.34375 5.902344 -27.121094 5.457031 -26.789062 C 4.902344 -26.398438 4.457031 -25.675781 4.121094 -24.617188 C 3.953125 -23.890625 3.675781 -22.277344 3.339844 -19.714844 Z M 3.339844 -19.714844 "/></g></g></g><g clip-path="url(#5a1fc8723a)"><g clip-path="url(#8df1773c25)"><g clip-path="url(#574030c94f)"><path fill="#7ed957" d="M 171.71875 38.488281 L 173.277344 44.871094 C 173.328125 45.074219 173.484375 45.238281 173.683594 45.296875 L 179.722656 47.058594 L 181.199219 53.109375 C 181.25 53.316406 181.40625 53.476562 181.605469 53.535156 L 187.914062 55.378906 C 188.117188 55.4375 188.335938 55.382812 188.488281 55.238281 L 192.988281 50.929688 L 198.972656 52.675781 C 199.171875 52.734375 199.390625 52.679688 199.542969 52.535156 L 204.289062 47.992188 C 204.441406 47.847656 204.503906 47.632812 204.457031 47.429688 L 202.976562 41.375 L 207.480469 37.070312 C 207.632812 36.921875 207.695312 36.707031 207.644531 36.503906 L 206.085938 30.121094 C 206.035156 29.917969 205.878906 29.753906 205.679688 29.695312 L 199.695312 27.949219 L 198.21875 21.898438 C 198.167969 21.691406 198.011719 21.53125 197.8125 21.472656 L 191.503906 19.628906 C 191.300781 19.570312 191.082031 19.625 190.929688 19.769531 L 186.429688 24.078125 L 180.390625 22.316406 C 180.191406 22.257812 179.972656 22.308594 179.820312 22.453125 L 175.074219 26.996094 C 174.921875 27.140625 174.855469 27.359375 174.90625 27.5625 L 176.386719 33.613281 L 171.882812 37.921875 C 171.730469 38.066406 171.667969 38.28125 171.71875 38.488281 Z M 193.964844 33.429688 L 195.363281 39.152344 L 191.105469 43.226562 L 185.453125 41.574219 L 184.054688 35.851562 L 188.3125 31.78125 Z M 187.917969 54.152344 L 182.261719 52.5 L 180.863281 46.777344 L 185.121094 42.707031 L 190.777344 44.355469 L 192.175781 50.078125 Z M 203.230469 47.378906 L 198.972656 51.449219 L 193.320312 49.800781 L 191.921875 44.078125 L 196.179688 40.003906 L 201.832031 41.65625 Z M 206.421875 36.453125 L 202.164062 40.523438 L 196.507812 38.875 L 195.109375 33.152344 L 199.367188 29.078125 L 205.023438 30.730469 Z M 191.5 20.855469 L 197.15625 22.507812 L 198.554688 28.230469 L 194.296875 32.300781 L 188.640625 30.652344 L 187.242188 24.929688 Z M 176.132812 27.613281 L 180.390625 23.539062 L 186.042969 25.191406 L 187.441406 30.914062 L 183.183594 34.984375 L 177.53125 33.335938 Z M 177.199219 34.464844 L 182.855469 36.117188 L 184.253906 41.839844 L 179.996094 45.910156 L 174.339844 44.261719 L 172.941406 38.539062 Z M 177.199219 34.464844 " fill-opacity="1" fill-rule="nonzero"/></g></g></g><g clip-path="url(#1743e76a70)"><g clip-path="url(#c67545a444)"><g clip-path="url(#fba72d4806)"><g clip-path="url(#7fa6cb2173)"><g clip-path="url(#afbec52e4c)"><path fill="#7ed957" d="M 195.578125 38.886719 L 194.121094 33.375 C 194.085938 33.234375 193.976562 33.125 193.835938 33.085938 L 188.332031 31.59375 C 188.191406 31.554688 188.042969 31.59375 187.941406 31.695312 L 183.894531 35.714844 C 183.792969 35.816406 183.753906 35.964844 183.789062 36.105469 L 185.246094 41.617188 C 185.285156 41.757812 185.390625 41.867188 185.53125 41.90625 L 191.035156 43.398438 C 191.175781 43.4375 191.324219 43.398438 191.425781 43.296875 L 195.472656 39.277344 C 195.574219 39.175781 195.617188 39.027344 195.578125 38.886719 " fill-opacity="1" fill-rule="nonzero"/></g></g></g></g></g><g clip-path="url(#3483dd30d8)"><g clip-path="url(#e1a1ebcca4)"><g clip-path="url(#0acffd7d2b)"><path fill="#f9b245" d="M 194.355469 38.597656 L 193.203125 34.226562 C 193.171875 34.117188 193.085938 34.03125 192.976562 34 L 188.613281 32.816406 C 188.503906 32.785156 188.382812 32.816406 188.300781 32.898438 L 185.09375 36.082031 C 185.011719 36.164062 184.980469 36.28125 185.011719 36.394531 L 186.164062 40.765625 C 186.195312 40.875 186.28125 40.960938 186.394531 40.992188 L 190.753906 42.175781 C 190.867188 42.207031 190.984375 42.175781 191.066406 42.09375 L 194.273438 38.910156 C 194.355469 38.828125 194.386719 38.710938 194.355469 38.597656 " fill-opacity="1" fill-rule="nonzero"/></g></g></g><g fill="#7ed957" fill-opacity="1"><g transform="translate(205.965882, 52.032172)"><g><path d="M 12.648438 -38.5 L 11.109375 -27.222656 L 9.953125 -27.222656 C 8.304688 -27.222656 7.148438 -27.222656 6.433594 -27.113281 C 5.335938 -27.003906 4.566406 -26.671875 4.015625 -26.234375 C 3.519531 -25.738281 3.136719 -24.804688 2.804688 -23.429688 C 2.695312 -22.769531 2.476562 -21.449219 2.199219 -19.46875 L 10.007812 -19.46875 L 9.734375 -17.488281 L 8.632812 -9.734375 L 8.359375 -7.699219 C 8.03125 -5.664062 7.808594 -4.289062 7.699219 -3.574219 L 7.699219 -2.75 C 7.699219 -2.089844 7.808594 -1.539062 8.03125 -1.15625 C 8.414062 -0.605469 9.292969 -0.21875 10.722656 -0.0546875 C 11.496094 -0.0546875 12.8125 0 14.738281 0 L 19.742188 0 C 21.890625 0 23.320312 -0.0546875 24.035156 -0.109375 C 25.132812 -0.273438 25.957031 -0.550781 26.453125 -0.988281 C 26.894531 -1.429688 27.277344 -2.199219 27.554688 -3.191406 C 27.773438 -3.960938 27.992188 -5.445312 28.269531 -7.699219 L 16.167969 -7.699219 L 16.445312 -9.734375 L 17.542969 -17.488281 L 17.820312 -19.46875 L 22.109375 -19.46875 C 24.417969 -19.46875 25.902344 -19.523438 26.617188 -19.578125 C 27.71875 -19.742188 28.542969 -20.019531 29.039062 -20.347656 C 29.535156 -20.789062 29.917969 -21.449219 30.195312 -22.328125 C 30.414062 -23.097656 30.6875 -24.695312 31.019531 -27.222656 L 18.917969 -27.222656 L 19.414062 -30.742188 C 19.742188 -32.667969 19.910156 -33.878906 19.910156 -34.375 C 20.019531 -34.867188 20.019531 -35.253906 20.019531 -35.582031 C 20.019531 -36.1875 19.964844 -36.683594 19.800781 -37.011719 C 19.46875 -37.785156 18.589844 -38.222656 17.050781 -38.332031 C 16.222656 -38.441406 14.738281 -38.5 12.648438 -38.5 Z M 12.648438 -38.5 "/></g></g></g><g fill="#7ed957" fill-opacity="1"><g transform="translate(236.708646, 52.032172)"><g><path d="M 11.769531 -27.277344 C 9.238281 -27.277344 7.589844 -27.222656 6.820312 -27.113281 C 5.828125 -27.003906 5.058594 -26.671875 4.511719 -26.179688 C 4.015625 -25.738281 3.628906 -24.804688 3.355469 -23.484375 C 3.246094 -22.824219 3.023438 -21.558594 2.695312 -19.578125 L 1.046875 -7.808594 C 0.769531 -5.609375 0.605469 -4.179688 0.550781 -3.410156 L 0.550781 -3.023438 C 0.550781 -2.253906 0.660156 -1.703125 0.878906 -1.320312 C 1.210938 -0.824219 1.761719 -0.496094 2.53125 -0.273438 C 3.300781 -0.164062 4.730469 -0.0546875 6.929688 -0.0546875 L 27.71875 -0.0546875 L 27.71875 -0.933594 C 27.71875 -2.585938 27.71875 -3.683594 27.609375 -4.34375 C 27.554688 -5.554688 27.332031 -6.324219 26.894531 -6.765625 C 26.5625 -7.203125 25.957031 -7.480469 25.078125 -7.589844 C 24.472656 -7.699219 23.097656 -7.753906 20.953125 -7.753906 L 8.855469 -7.753906 C 8.964844 -8.359375 9.019531 -8.746094 9.019531 -8.910156 C 9.074219 -9.238281 9.128906 -9.460938 9.238281 -9.570312 C 9.347656 -9.679688 9.515625 -9.734375 9.679688 -9.734375 C 9.84375 -9.789062 10.121094 -9.789062 10.503906 -9.789062 L 22.054688 -9.789062 C 23.980469 -9.789062 25.300781 -9.84375 26.015625 -9.953125 C 27.113281 -10.066406 27.882812 -10.394531 28.378906 -10.835938 C 28.820312 -11.328125 29.203125 -12.097656 29.421875 -13.144531 C 29.644531 -13.859375 29.863281 -15.289062 30.136719 -17.488281 L 30.46875 -19.578125 C 30.6875 -21.339844 30.855469 -22.492188 30.910156 -23.097656 C 30.964844 -23.59375 30.964844 -23.980469 30.964844 -24.308594 C 30.964844 -25.410156 30.742188 -26.179688 30.195312 -26.5625 C 29.753906 -26.894531 28.929688 -27.113281 27.71875 -27.222656 C 27.058594 -27.277344 25.738281 -27.277344 23.757812 -27.277344 Z M 11.878906 -19.523438 L 22.605469 -19.523438 C 22.550781 -18.917969 22.492188 -18.480469 22.4375 -18.257812 C 22.4375 -18.039062 22.382812 -17.929688 22.273438 -17.820312 C 22.164062 -17.710938 21.945312 -17.597656 21.613281 -17.542969 L 10.230469 -17.542969 C 10.339844 -18.203125 10.394531 -18.589844 10.394531 -18.753906 C 10.503906 -18.972656 10.558594 -19.140625 10.613281 -19.25 C 10.722656 -19.359375 10.835938 -19.46875 10.945312 -19.46875 C 11.054688 -19.523438 11.382812 -19.523438 11.878906 -19.523438 Z M 11.878906 -19.523438 "/></g></g></g><g fill="#7ed957" fill-opacity="1"><g transform="translate(268.166369, 52.032172)"><g><path d="M 2.695312 -19.523438 L 2.417969 -17.488281 C 2.089844 -15.34375 1.871094 -13.914062 1.761719 -13.144531 L 1.761719 -12.484375 C 1.761719 -11.605469 1.980469 -11 2.308594 -10.613281 C 2.75 -10.230469 3.464844 -9.953125 4.566406 -9.84375 C 5.226562 -9.789062 6.324219 -9.734375 7.808594 -9.734375 L 21.285156 -9.734375 C 21.230469 -9.238281 21.175781 -8.910156 21.117188 -8.691406 C 21.117188 -8.414062 21.007812 -8.195312 20.898438 -8.03125 C 20.789062 -7.917969 20.625 -7.863281 20.402344 -7.753906 L 1.046875 -7.753906 C 0.714844 -5.335938 0.550781 -3.738281 0.550781 -2.96875 C 0.550781 -2.144531 0.660156 -1.539062 0.933594 -1.101562 C 1.265625 -0.714844 1.761719 -0.441406 2.417969 -0.273438 C 3.191406 -0.109375 4.949219 0 7.808594 0 L 19.910156 0 C 22.714844 0 24.527344 -0.109375 25.300781 -0.273438 C 26.125 -0.441406 26.730469 -0.769531 27.167969 -1.265625 C 27.5 -1.648438 27.71875 -2.144531 27.9375 -2.914062 C 28.160156 -3.683594 28.488281 -5.335938 28.820312 -7.753906 L 29.09375 -9.734375 C 29.367188 -11.933594 29.535156 -13.363281 29.535156 -14.023438 L 29.535156 -14.355469 C 29.535156 -15.398438 29.367188 -16.113281 28.984375 -16.5 C 28.597656 -16.996094 27.828125 -17.269531 26.617188 -17.378906 C 25.957031 -17.488281 24.527344 -17.488281 22.328125 -17.488281 L 10.230469 -17.488281 C 10.339844 -18.09375 10.394531 -18.480469 10.394531 -18.644531 C 10.449219 -18.863281 10.503906 -19.027344 10.613281 -19.140625 C 10.722656 -19.304688 10.945312 -19.414062 11.164062 -19.46875 C 11.382812 -19.523438 11.933594 -19.523438 12.703125 -19.523438 L 23.484375 -19.523438 C 25.242188 -19.523438 26.507812 -19.578125 27.167969 -19.632812 C 27.9375 -19.742188 28.488281 -19.855469 28.929688 -20.074219 C 29.699219 -20.460938 30.25 -21.175781 30.578125 -22.273438 C 30.855469 -23.042969 31.183594 -24.695312 31.511719 -27.222656 L 11.109375 -27.222656 C 9.128906 -27.222656 7.753906 -27.222656 6.984375 -27.113281 C 5.996094 -27.003906 5.28125 -26.785156 4.785156 -26.398438 C 4.234375 -26.015625 3.792969 -25.242188 3.519531 -24.144531 C 3.300781 -23.429688 3.023438 -21.890625 2.695312 -19.523438 Z M 2.695312 -19.523438 "/></g></g></g><g clip-path="url(#3568e97618)"><g clip-path="url(#e33a6787d9)"><g clip-path="url(#661dbe7c94)"><g clip-path="url(#5093ffd8ea)"><g clip-path="url(#b8f25df614)"><path fill="#7ed957" d="M 203.671875 47.3125 L 202.1875 41.699219 C 202.152344 41.554688 202.039062 41.445312 201.898438 41.40625 L 196.292969 39.882812 C 196.148438 39.84375 195.996094 39.882812 195.894531 39.988281 L 191.773438 44.082031 C 191.667969 44.183594 191.625 44.335938 191.664062 44.480469 L 193.148438 50.09375 C 193.1875 50.238281 193.296875 50.351562 193.441406 50.386719 L 199.042969 51.910156 C 199.1875 51.949219 199.339844 51.910156 199.445312 51.804688 L 203.566406 47.710938 C 203.667969 47.609375 203.710938 47.457031 203.671875 47.3125 " fill-opacity="1" fill-rule="nonzero"/></g></g></g></g></g><g clip-path="url(#d7c42d11a2)"><g clip-path="url(#3c94b66b54)"><g clip-path="url(#351bd22f25)"><path fill="#f9b245" d="M 202.429688 47.019531 L 201.253906 42.566406 C 201.222656 42.453125 201.132812 42.367188 201.019531 42.335938 L 196.578125 41.128906 C 196.464844 41.097656 196.34375 41.128906 196.261719 41.210938 L 192.992188 44.457031 C 192.910156 44.539062 192.878906 44.660156 192.910156 44.773438 L 194.085938 49.226562 C 194.113281 49.339844 194.203125 49.425781 194.316406 49.457031 L 198.757812 50.664062 C 198.871094 50.695312 198.992188 50.664062 199.078125 50.582031 L 202.34375 47.335938 C 202.425781 47.253906 202.457031 47.132812 202.429688 47.019531 " fill-opacity="1" fill-rule="nonzero"/></g></g></g><g clip-path="url(#d61bbb6dec)"><g clip-path="url(#d0f20c7190)"><g clip-path="url(#ff32646c3d)"><g clip-path="url(#4fcec72d29)"><g clip-path="url(#fbf952b707)"><path fill="#7ed957" d="M 192.273438 49.863281 L 190.789062 44.246094 C 190.75 44.105469 190.640625 43.992188 190.496094 43.953125 L 184.890625 42.433594 C 184.75 42.394531 184.597656 42.433594 184.492188 42.539062 L 180.371094 46.632812 C 180.265625 46.734375 180.226562 46.886719 180.265625 47.03125 L 181.75 52.644531 C 181.785156 52.789062 181.898438 52.898438 182.039062 52.9375 L 187.644531 54.460938 C 187.785156 54.5 187.941406 54.460938 188.042969 54.355469 L 192.164062 50.261719 C 192.269531 50.15625 192.3125 50.003906 192.273438 49.863281 " fill-opacity="1" fill-rule="nonzero"/></g></g></g></g></g><g clip-path="url(#42abc1b899)"><g clip-path="url(#ab8c3980c3)"><g clip-path="url(#633ed3cd6f)"><path fill="#f9b245" d="M 191.027344 49.570312 L 189.851562 45.117188 C 189.820312 45.003906 189.734375 44.917969 189.621094 44.886719 L 185.175781 43.679688 C 185.066406 43.648438 184.945312 43.679688 184.859375 43.761719 L 181.59375 47.007812 C 181.511719 47.089844 181.476562 47.210938 181.507812 47.324219 L 182.683594 51.773438 C 182.714844 51.886719 182.804688 51.976562 182.914062 52.007812 L 187.359375 53.214844 C 187.472656 53.246094 187.59375 53.214844 187.675781 53.128906 L 190.941406 49.886719 C 191.027344 49.804688 191.058594 49.683594 191.027344 49.570312 " fill-opacity="1" fill-rule="nonzero"/></g></g></g><g clip-path="url(#7b3e33aad2)"><g clip-path="url(#e5b7eaf666)"><g clip-path="url(#ca2dc5b8f1)"><g clip-path="url(#d7387ca3ec)"><g clip-path="url(#ad0982195e)"><path fill="#7ed957" d="M 185.011719 41.429688 L 183.496094 35.707031 C 183.457031 35.558594 183.34375 35.445312 183.199219 35.40625 L 177.488281 33.855469 C 177.339844 33.816406 177.1875 33.855469 177.078125 33.960938 L 172.878906 38.132812 C 172.773438 38.242188 172.730469 38.394531 172.769531 38.542969 L 174.28125 44.265625 C 174.320312 44.410156 174.433594 44.523438 174.578125 44.5625 L 180.292969 46.117188 C 180.4375 46.15625 180.59375 46.113281 180.699219 46.007812 L 184.898438 41.835938 C 185.007812 41.730469 185.046875 41.574219 185.011719 41.429688 " fill-opacity="1" fill-rule="nonzero"/></g></g></g></g></g><g clip-path="url(#a098c8767d)"><g clip-path="url(#def579ac01)"><g clip-path="url(#a18ea31325)"><path fill="#f9b245" d="M 183.742188 41.128906 L 182.542969 36.59375 C 182.511719 36.476562 182.421875 36.386719 182.308594 36.355469 L 177.777344 35.125 C 177.660156 35.09375 177.539062 35.125 177.453125 35.210938 L 174.125 38.519531 C 174.039062 38.601562 174.007812 38.726562 174.035156 38.839844 L 175.234375 43.378906 C 175.265625 43.492188 175.355469 43.585938 175.472656 43.617188 L 180 44.84375 C 180.117188 44.875 180.238281 44.84375 180.324219 44.761719 L 183.652344 41.453125 C 183.738281 41.367188 183.773438 41.246094 183.742188 41.128906 " fill-opacity="1" fill-rule="nonzero"/></g></g></g><g clip-path="url(#8ce47443c5)"><g clip-path="url(#4fc8241fd9)"><g clip-path="url(#8a398eb3b7)"><g clip-path="url(#d6d61c1602)"><g clip-path="url(#36e74b2c15)"><path fill="#7ed957" d="M 187.820312 30.941406 L 186.292969 25.164062 C 186.253906 25.015625 186.140625 24.902344 185.992188 24.859375 L 180.226562 23.292969 C 180.078125 23.253906 179.921875 23.296875 179.816406 23.402344 L 175.574219 27.617188 C 175.464844 27.722656 175.425781 27.878906 175.460938 28.027344 L 176.992188 33.804688 C 177.027344 33.949219 177.144531 34.066406 177.289062 34.105469 L 183.058594 35.671875 C 183.203125 35.710938 183.363281 35.671875 183.46875 35.5625 L 187.710938 31.351562 C 187.816406 31.246094 187.859375 31.089844 187.820312 30.941406 " fill-opacity="1" fill-rule="nonzero"/></g></g></g></g></g><g clip-path="url(#d04ebecae7)"><g clip-path="url(#0044eef6eb)"><g clip-path="url(#e359d7e5f6)"><path fill="#f9b245" d="M 186.539062 30.640625 L 185.328125 26.058594 C 185.300781 25.941406 185.207031 25.851562 185.09375 25.820312 L 180.519531 24.578125 C 180.402344 24.546875 180.277344 24.578125 180.195312 24.664062 L 176.832031 28.003906 C 176.746094 28.085938 176.710938 28.210938 176.742188 28.328125 L 177.953125 32.910156 C 177.984375 33.023438 178.074219 33.117188 178.191406 33.148438 L 182.765625 34.390625 C 182.882812 34.421875 183.003906 34.386719 183.089844 34.304688 L 186.453125 30.964844 C 186.539062 30.878906 186.570312 30.753906 186.539062 30.640625 " fill-opacity="1" fill-rule="nonzero"/></g></g></g><g clip-path="url(#164e99b9fc)"><g clip-path="url(#fc7869d371)"><g clip-path="url(#6c9ec5d1d4)"><g clip-path="url(#43d7ceb16c)"><g clip-path="url(#13df4f4631)"><path fill="#7ed957" d="M 198.875 27.984375 L 197.367188 22.285156 C 197.328125 22.140625 197.214844 22.027344 197.070312 21.988281 L 191.382812 20.441406 C 191.238281 20.402344 191.082031 20.445312 190.976562 20.550781 L 186.792969 24.703125 C 186.6875 24.808594 186.644531 24.964844 186.683594 25.109375 L 188.191406 30.808594 C 188.226562 30.953125 188.339844 31.066406 188.484375 31.105469 L 194.175781 32.652344 C 194.320312 32.691406 194.476562 32.652344 194.582031 32.546875 L 198.765625 28.390625 C 198.871094 28.285156 198.910156 28.128906 198.875 27.984375 " fill-opacity="1" fill-rule="nonzero"/></g></g></g></g></g><g clip-path="url(#a199b8521d)"><g clip-path="url(#563b06d4c2)"><g clip-path="url(#3e438b0fe5)"><path fill="#f9b245" d="M 197.609375 27.6875 L 196.417969 23.167969 C 196.386719 23.054688 196.296875 22.964844 196.183594 22.933594 L 191.671875 21.707031 C 191.554688 21.675781 191.433594 21.710938 191.347656 21.792969 L 188.035156 25.085938 C 187.949219 25.171875 187.917969 25.292969 187.945312 25.40625 L 189.140625 29.925781 C 189.171875 30.042969 189.261719 30.132812 189.375 30.164062 L 193.886719 31.386719 C 194 31.417969 194.125 31.386719 194.207031 31.300781 L 197.523438 28.007812 C 197.609375 27.925781 197.640625 27.800781 197.609375 27.6875 " fill-opacity="1" fill-rule="nonzero"/></g></g></g><g clip-path="url(#e9694a74ed)"><g clip-path="url(#9b3810b89a)"><g clip-path="url(#667e233844)"><g clip-path="url(#7d7abf2828)"><g clip-path="url(#098573d078)"><path fill="#7ed957" d="M 206.683594 36.273438 L 205.195312 30.644531 C 205.15625 30.503906 205.046875 30.390625 204.902344 30.351562 L 199.285156 28.828125 C 199.144531 28.789062 198.992188 28.828125 198.886719 28.933594 L 194.757812 33.035156 C 194.652344 33.140625 194.609375 33.292969 194.648438 33.433594 L 196.136719 39.0625 C 196.171875 39.203125 196.285156 39.316406 196.425781 39.355469 L 202.042969 40.878906 C 202.1875 40.917969 202.339844 40.878906 202.445312 40.773438 L 206.574219 36.671875 C 206.679688 36.570312 206.71875 36.414062 206.683594 36.273438 " fill-opacity="1" fill-rule="nonzero"/></g></g></g></g></g><g clip-path="url(#a69e58b154)"><g clip-path="url(#0c74850a96)"><g clip-path="url(#f76e40df3e)"><path fill="#f9b245" d="M 205.433594 35.980469 L 204.253906 31.519531 C 204.226562 31.40625 204.136719 31.316406 204.023438 31.285156 L 199.570312 30.074219 C 199.457031 30.046875 199.335938 30.078125 199.253906 30.160156 L 195.980469 33.410156 C 195.898438 33.496094 195.863281 33.613281 195.894531 33.726562 L 197.074219 38.1875 C 197.105469 38.300781 197.191406 38.390625 197.304688 38.421875 L 201.757812 39.632812 C 201.871094 39.660156 201.992188 39.628906 202.074219 39.546875 L 205.347656 36.296875 C 205.433594 36.214844 205.464844 36.09375 205.433594 35.980469 " fill-opacity="1" fill-rule="nonzero"/></g></g></g></svg>