<svg xmlns="http://www.w3.org/2000/svg" xmlns:xlink="http://www.w3.org/1999/xlink" width="500" zoomAndPan="magnify" viewBox="0 0 375 374.999991" height="500" preserveAspectRatio="xMidYMid meet" version="1.0"><defs><g/><clipPath id="802a683d76"><path d="M 13 34 L 362 34 L 362 341 L 13 341 Z M 13 34 " clip-rule="nonzero"/></clipPath><clipPath id="9dc52519a9"><path d="M -32.183594 113.488281 L 231.203125 -39.875 L 406.472656 261.140625 L 143.085938 414.5 Z M -32.183594 113.488281 " clip-rule="nonzero"/></clipPath><clipPath id="46d7d036fd"><path d="M -32.183594 113.488281 L 231.203125 -39.875 L 406.472656 261.140625 L 143.085938 414.5 Z M -32.183594 113.488281 " clip-rule="nonzero"/></clipPath><clipPath id="c4ee215e4f"><path d="M -32.148438 113.546875 L 231.734375 -40.105469 L 407.269531 261.367188 L 143.386719 415.019531 Z M -32.148438 113.546875 " clip-rule="nonzero"/></clipPath><clipPath id="48f8ac36ff"><path d="M -32.148438 113.546875 L 231.59375 -40.023438 L 407.117188 261.421875 L 143.371094 414.992188 Z M -32.148438 113.546875 " clip-rule="nonzero"/></clipPath><clipPath id="251e5ce9aa"><path d="M 49 66 L 326 66 L 326 309 L 49 309 Z M 49 66 " clip-rule="nonzero"/></clipPath><clipPath id="9df770e5a2"><path d="M -32.183594 113.488281 L 231.203125 -39.875 L 406.472656 261.140625 L 143.085938 414.5 Z M -32.183594 113.488281 " clip-rule="nonzero"/></clipPath><clipPath id="da8d5382a5"><path d="M -32.183594 113.488281 L 231.203125 -39.875 L 406.472656 261.140625 L 143.085938 414.5 Z M -32.183594 113.488281 " clip-rule="nonzero"/></clipPath></defs><g clip-path="url(#802a683d76)"><g clip-path="url(#9dc52519a9)"><g clip-path="url(#46d7d036fd)"><g clip-path="url(#c4ee215e4f)"><g clip-path="url(#48f8ac36ff)"><path fill="#7ed957" d="M 360.320312 181.054688 L 278.390625 40.347656 C 276.308594 36.769531 272.472656 34.574219 268.332031 34.589844 L 105.511719 35.1875 C 101.371094 35.203125 97.554688 37.425781 95.496094 41.019531 L 14.605469 182.324219 C 12.546875 185.917969 12.5625 190.335938 14.644531 193.914062 L 96.574219 334.621094 C 98.65625 338.199219 102.492188 340.398438 106.632812 340.378906 L 269.453125 339.78125 C 273.59375 339.769531 277.414062 337.542969 279.46875 333.949219 L 360.363281 192.644531 C 362.417969 189.050781 362.402344 184.632812 360.320312 181.054688 " fill-opacity="1" fill-rule="nonzero"/></g></g></g></g></g><g clip-path="url(#251e5ce9aa)"><g clip-path="url(#9df770e5a2)"><g clip-path="url(#da8d5382a5)"><path fill="#ffc422" d="M 324.503906 182.386719 L 259.554688 70.835938 C 257.902344 68 254.859375 66.261719 251.578125 66.273438 L 122.5 66.746094 C 119.214844 66.761719 116.1875 68.523438 114.558594 71.371094 L 50.429688 183.394531 C 48.800781 186.246094 48.8125 189.746094 50.464844 192.582031 L 115.414062 304.132812 C 117.066406 306.96875 120.105469 308.710938 123.386719 308.695312 L 252.46875 308.222656 C 255.75 308.210938 258.777344 306.449219 260.40625 303.597656 L 324.535156 191.574219 C 326.167969 188.726562 326.15625 185.222656 324.503906 182.386719 " fill-opacity="1" fill-rule="nonzero"/></g></g></g><g fill="#231f20" fill-opacity="1"><g transform="translate(58.248425, 244.669356)"><g><path d="M 44.972656 -136.878906 L 39.5 -96.792969 L 35.390625 -96.792969 C 29.527344 -96.792969 25.421875 -96.792969 22.878906 -96.402344 C 18.96875 -96.007812 16.230469 -94.835938 14.273438 -93.273438 C 12.515625 -91.511719 11.144531 -88.1875 9.972656 -83.300781 C 9.582031 -80.953125 8.800781 -76.261719 7.820312 -69.21875 L 35.589844 -69.21875 L 34.609375 -62.179688 L 30.699219 -34.609375 L 29.722656 -27.375 C 28.546875 -20.140625 27.765625 -15.253906 27.375 -12.710938 L 27.375 -9.777344 C 27.375 -7.429688 27.765625 -5.476562 28.546875 -4.105469 C 29.917969 -2.152344 33.046875 -0.78125 38.128906 -0.195312 C 40.867188 -0.195312 45.558594 0 52.40625 0 L 70.199219 0 C 77.824219 0 82.910156 -0.195312 85.449219 -0.390625 C 89.359375 -0.976562 92.292969 -1.957031 94.054688 -3.519531 C 95.617188 -5.085938 96.988281 -7.820312 97.964844 -11.339844 C 98.746094 -14.078125 99.527344 -19.359375 100.507812 -27.375 L 57.488281 -27.375 L 58.464844 -34.609375 L 62.375 -62.179688 L 63.355469 -69.21875 L 78.605469 -69.21875 C 86.820312 -69.21875 92.097656 -69.417969 94.640625 -69.613281 C 98.550781 -70.199219 101.484375 -71.175781 103.246094 -72.347656 C 105.003906 -73.914062 106.371094 -76.261719 107.351562 -79.386719 C 108.132812 -82.125 109.109375 -87.796875 110.285156 -96.792969 L 67.265625 -96.792969 L 69.023438 -109.304688 C 70.199219 -116.148438 70.785156 -120.453125 70.785156 -122.210938 C 71.175781 -123.972656 71.175781 -125.339844 71.175781 -126.511719 C 71.175781 -128.664062 70.980469 -130.425781 70.394531 -131.597656 C 69.21875 -134.335938 66.09375 -135.898438 60.617188 -136.289062 C 57.683594 -136.679688 52.40625 -136.878906 44.972656 -136.878906 Z M 44.972656 -136.878906 "/></g></g></g><g fill="#231f20" fill-opacity="1"><g transform="translate(167.552421, 244.669356)"><g><path d="M 1.957031 0 C 10.558594 0 16.035156 -0.195312 18.574219 -0.390625 C 21.898438 -0.78125 24.246094 -1.5625 25.8125 -2.738281 C 27.960938 -4.105469 29.527344 -6.257812 30.503906 -9.386719 C 31.285156 -12.125 32.460938 -18.183594 33.632812 -27.570312 C 24.441406 -27.570312 18.378906 -27.375 15.644531 -26.789062 C 12.320312 -26.398438 9.972656 -25.421875 8.210938 -23.660156 C 6.648438 -22.097656 5.28125 -19.164062 4.300781 -15.253906 Z M 1.957031 0 "/></g></g></g><g fill="#231f20" fill-opacity="1"><g transform="translate(202.94423, 244.669356)"><g><path d="M 11.730469 -69.21875 L 10.753906 -62.179688 L 6.84375 -34.609375 L 5.867188 -27.375 L 1.957031 0 C 10.363281 0 15.839844 -0.195312 18.378906 -0.390625 C 21.898438 -0.976562 24.636719 -1.957031 26.203125 -3.128906 C 28.15625 -4.691406 29.722656 -7.039062 30.503906 -10.363281 C 31.285156 -13.101562 32.460938 -18.773438 33.632812 -27.375 L 34.609375 -34.609375 L 38.519531 -62.179688 C 38.914062 -64.332031 39.109375 -65.699219 39.109375 -66.289062 C 39.5 -67.460938 40.085938 -68.242188 40.476562 -68.632812 C 41.0625 -69.023438 41.648438 -69.21875 42.433594 -69.21875 C 42.824219 -69.417969 43.410156 -69.417969 43.996094 -69.417969 C 44.777344 -69.417969 45.757812 -69.417969 46.734375 -69.21875 L 82.515625 -69.21875 L 81.539062 -62.179688 L 77.628906 -34.609375 L 76.652344 -27.375 L 72.742188 0 C 82.320312 0 88.578125 -0.390625 91.316406 -0.78125 C 94.640625 -1.5625 96.988281 -2.738281 98.550781 -4.496094 C 100.117188 -6.0625 101.09375 -8.605469 101.875 -11.730469 C 102.65625 -14.273438 103.441406 -19.554688 104.417969 -27.375 L 105.394531 -34.609375 L 109.304688 -62.179688 L 110.285156 -69.21875 C 111.457031 -77.824219 112.042969 -83.496094 112.042969 -86.035156 L 112.042969 -87.40625 C 111.847656 -90.730469 110.871094 -93.078125 109.304688 -94.25 C 108.132812 -95.421875 106.175781 -96.007812 103.636719 -96.402344 C 101.289062 -96.792969 97.574219 -96.792969 92.292969 -96.792969 L 37.347656 -96.792969 C 32.265625 -96.792969 28.546875 -96.792969 26.203125 -96.402344 C 23.074219 -96.007812 20.726562 -95.226562 19.164062 -94.054688 C 17.207031 -92.683594 15.644531 -90.144531 14.46875 -86.429688 C 13.882812 -83.886719 12.90625 -78.214844 11.730469 -69.21875 Z M 11.730469 -69.21875 "/></g></g></g></svg>